<?xml version="1.0" encoding="UTF-8"?>
<svg version="1.1" xmlns="http://www.w3.org/2000/svg" width="443" height="179">
<path d="M0 0 C146.19 0 292.38 0 443 0 C443 59.07 443 118.14 443 179 C296.81 179 150.62 179 0 179 C0 119.93 0 60.86 0 0 Z " fill="#FDFEFD" transform="translate(0,0)"/>
<path d="M0 0 C2.475 0.495 2.475 0.495 5 1 C5.16873123 1.62196259 5.33746246 2.24392517 5.51130676 2.88473511 C7.26613082 9.34441962 9.03673093 15.79962772 10.81665039 22.25244141 C11.47925851 24.66278199 12.13780497 27.07424291 12.79223633 29.48681641 C13.73239318 32.94995285 14.68697642 36.4088271 15.64453125 39.8671875 C15.9352803 40.95055389 16.22602936 42.03392029 16.52558899 43.15011597 C16.80565292 44.1510025 17.08571686 45.15188904 17.37426758 46.18310547 C17.61631424 47.06690887 17.8583609 47.95071228 18.10774231 48.86129761 C18.91001467 51.34035566 18.91001467 51.34035566 22 53 C24.15879334 53.32629156 24.15879334 53.32629156 26.56323242 53.31884766 C27.94432442 53.34865219 27.94432442 53.34865219 29.35331726 53.37905884 C30.34402725 53.39061005 31.33473724 53.40216125 32.35546875 53.4140625 C33.37224197 53.43342865 34.3890152 53.4527948 35.43659973 53.4727478 C38.68681427 53.53256741 41.93706417 53.57893876 45.1875 53.625 C47.38998948 53.66317756 49.59246399 53.70222916 51.79492188 53.7421875 C57.19648183 53.83827083 62.59813177 53.92331138 68 54 C68 55.65 68 57.3 68 59 C66.02 59.33 64.04 59.66 62 60 C62.47542236 60.70995117 62.95084473 61.41990234 63.44067383 62.15136719 C65.07704941 65.14075661 65.56197939 67.21580934 65.94921875 70.578125 C66.07514404 71.64949707 66.20106934 72.72086914 66.33081055 73.82470703 C66.50737183 75.52022705 66.50737183 75.52022705 66.6875 77.25 C66.81487549 78.40483887 66.94225098 79.55967773 67.07348633 80.74951172 C68.01926297 89.86474334 68.34417826 98.84740765 68 108 C66.35 107.67 64.7 107.34 63 107 C63 104.03 63 101.06 63 98 C48.81 98 34.62 98 20 98 C20 100.64 20 103.28 20 106 C19.67 106.66 19.34 107.32 19 108 C17.35 107.67 15.7 107.34 14 107 C14.2550532 102.87216527 14.53554188 98.74663095 14.82470703 94.62109375 C14.95076534 92.73618843 15.06785747 90.8506756 15.17919922 88.96484375 C15.37439731 85.66286686 15.59242473 82.36290353 15.8125 79.0625 C15.87034668 77.99717041 15.92819336 76.93184082 15.98779297 75.83422852 C16.45152265 69.25267528 17.62490821 64.68904925 21 59 C20.236875 58.566875 19.47375 58.13375 18.6875 57.6875 C13.982059 54.73292077 12.62010714 52.5973909 11.1875 47.1875 C10.85234375 45.94871094 10.5171875 44.70992187 10.171875 43.43359375 C9.98818359 42.73733887 9.80449219 42.04108398 9.61523438 41.32373047 C8.67114278 37.75791151 7.69719544 34.20031583 6.72583008 30.6418457 C6.21271084 28.75956097 5.70200427 26.87661632 5.1940918 24.99291992 C3.76099664 19.69473787 2.23882029 14.44199544 0.57128906 9.21240234 C-0.24806095 6.03934688 -0.21248993 3.25817896 0 0 Z " fill="#0A0A0A" transform="translate(89,18)"/>
<path d="M0 0 C0.94166016 -0.01611328 1.88332031 -0.03222656 2.85351562 -0.04882812 C11.75467974 -0.05510982 11.75467974 -0.05510982 15.5625 3.3125 C19.13241646 7.62848889 19.29622257 12.30878034 19.75 17.6875 C19.83185547 18.5125 19.91371094 19.3375 19.99804688 20.1875 C20.4483413 24.95532332 20.5625 29.48625082 20.5625 34.3125 C7.0325 34.3125 -6.4975 34.3125 -20.4375 34.3125 C-20.4375 21.225 -20.4375 21.225 -19.6875 14.9375 C-19.625625 14.26589844 -19.56375 13.59429687 -19.5 12.90234375 C-18.95298379 8.26182287 -17.75565865 5.59485118 -14.4375 2.3125 C-9.83228267 -0.48665365 -5.23947335 -0.01785778 0 0 Z " fill="#FCFCFC" transform="translate(130.4375,76.6875)"/>
<path d="M0 0 C0.76183594 -0.00773437 1.52367187 -0.01546875 2.30859375 -0.0234375 C5.15433214 0.47962197 6.40360815 1.46662258 8.5625 3.375 C9.67163086 5.43701172 9.67163086 5.43701172 10.52734375 7.8046875 C10.85001221 8.67706055 11.17268066 9.54943359 11.50512695 10.44824219 C11.83343506 11.37282227 12.16174316 12.29740234 12.5 13.25 C12.84699951 14.19004883 13.19399902 15.13009766 13.55151367 16.09863281 C14.84220552 19.59769512 16.10729043 23.10561243 17.36621094 26.61621094 C18.02774263 28.45539472 18.70082055 30.2904147 19.375 32.125 C19.73207031 33.13046875 20.08914063 34.1359375 20.45703125 35.171875 C21.40913245 37.71615737 21.40913245 37.71615737 24.5625 38.375 C24.5625 25.835 24.5625 13.295 24.5625 0.375 C26.8725 0.375 29.1825 0.375 31.5625 0.375 C31.66142174 5.9983202 31.73399342 11.62113333 31.78222656 17.24511719 C31.80233452 19.15796735 31.82962507 21.07075611 31.86425781 22.98339844 C31.91281249 25.73387811 31.93547658 28.48354477 31.953125 31.234375 C31.97377014 32.08868103 31.99441528 32.94298706 32.01568604 33.82318115 C32.01792779 39.76308524 32.01792779 39.76308524 29.67675781 42.90869141 C27.27900105 44.57161602 25.96332771 44.97019698 23.0625 45 C21.93328125 45.05027344 21.93328125 45.05027344 20.78125 45.1015625 C18.0403785 44.20402359 17.04022979 42.8738493 15.58056641 40.43457031 C13.34880661 35.91967208 11.70220633 31.17095402 10 26.4375 C8.53248959 22.41225858 7.05210335 18.39210996 5.5625 14.375 C5.29711426 13.62331543 5.03172852 12.87163086 4.75830078 12.09716797 C4.00663976 9.99112781 4.00663976 9.99112781 2.5625 7.375 C1.2425 7.045 -0.0775 6.715 -1.4375 6.375 C-1.4375 18.915 -1.4375 31.455 -1.4375 44.375 C-3.4175 44.375 -5.3975 44.375 -7.4375 44.375 C-7.51160115 38.59093031 -7.56607885 32.80713629 -7.60229492 27.02270508 C-7.61739082 25.05455717 -7.63786948 23.08644294 -7.66381836 21.1184082 C-7.70016649 18.29109388 -7.71721814 15.4642239 -7.73046875 12.63671875 C-7.74595261 11.75537766 -7.76143646 10.87403656 -7.77738953 9.96598816 C-7.77761612 9.14536392 -7.77784271 8.32473969 -7.77807617 7.47924805 C-7.78473801 6.75754929 -7.79139984 6.03585052 -7.79826355 5.2922821 C-6.97640618 0.92451152 -4.06283566 -0.04110795 0 0 Z " fill="#98E94D" transform="translate(239.4375,81.625)"/>
<path d="M0 0 C1.29873047 0.00322266 2.59746094 0.00644531 3.93554688 0.00976562 C5.30729233 0.01812094 6.67903712 0.02658588 8.05078125 0.03515625 C9.4342432 0.0401729 10.81770688 0.04473552 12.20117188 0.04882812 C15.5885852 0.06063096 18.97591158 0.07709606 22.36328125 0.09765625 C22.36328125 1.74765625 22.36328125 3.39765625 22.36328125 5.09765625 C21.60708496 5.11223877 20.85088867 5.12682129 20.07177734 5.1418457 C16.62677848 5.21657625 13.18272204 5.31315553 9.73828125 5.41015625 C8.54847656 5.43271484 7.35867188 5.45527344 6.1328125 5.47851562 C-2.24418761 5.56871032 -2.24418761 5.56871032 -9.63671875 9.09765625 C-12.97410523 13.06433806 -13.15528859 17.03522779 -13.13671875 22.03515625 C-13.16507812 22.72544922 -13.1934375 23.41574219 -13.22265625 24.12695312 C-13.2375448 28.0538075 -12.66595911 30.5385742 -10.23046875 33.5390625 C-5.88878498 37.82189815 -2.5231317 37.34217283 3.30078125 37.41015625 C4.12513672 37.43916016 4.94949219 37.46816406 5.79882812 37.49804688 C10.45503813 37.63741822 10.45503813 37.63741822 14.38671875 35.46875 C15.59721422 32.52966701 15.87839494 30.01956444 16.05078125 26.84765625 C16.15390625 24.95015625 16.25703125 23.05265625 16.36328125 21.09765625 C11.41328125 21.09765625 6.46328125 21.09765625 1.36328125 21.09765625 C1.36328125 19.11765625 1.36328125 17.13765625 1.36328125 15.09765625 C8.62328125 15.09765625 15.88328125 15.09765625 23.36328125 15.09765625 C23.51796875 19.55265625 23.51796875 19.55265625 23.67578125 24.09765625 C23.72130127 25.01675781 23.76682129 25.93585938 23.8137207 26.8828125 C23.9156079 33.01444947 22.59302551 37.52238358 18.36328125 42.09765625 C13.8016925 45.02493971 8.86057255 44.50408676 3.61328125 44.53515625 C2.6490625 44.56802734 1.68484375 44.60089844 0.69140625 44.63476562 C-5.91308798 44.68411986 -10.77097732 43.79201297 -15.63671875 39.09765625 C-19.80644924 33.67125371 -20.23772723 28.11848498 -20.07421875 21.47265625 C-20.08130859 20.6528125 -20.08839844 19.83296875 -20.09570312 18.98828125 C-20.04332771 13.97635696 -19.44904294 10.4038247 -16.63671875 6.09765625 C-14.91796875 4.453125 -14.91796875 4.453125 -13.13671875 3.28515625 C-12.54890625 2.88683594 -11.96109375 2.48851563 -11.35546875 2.078125 C-7.55110533 -0.09209141 -4.28666913 -0.01871908 0 0 Z " fill="#8FEE3A" transform="translate(300.63671875,81.90234375)"/>
<path d="M0 0 C1.21171875 0.00322266 2.4234375 0.00644531 3.671875 0.00976562 C4.94289063 0.01814453 6.21390625 0.02652344 7.5234375 0.03515625 C8.8021875 0.03966797 10.0809375 0.04417969 11.3984375 0.04882812 C14.56515042 0.06064422 17.73177106 0.0771181 20.8984375 0.09765625 C20.8984375 2.07765625 20.8984375 4.05765625 20.8984375 6.09765625 C20.17253418 6.10176514 19.44663086 6.10587402 18.69873047 6.11010742 C15.38948834 6.14313115 12.08206566 6.21378651 8.7734375 6.28515625 C7.06027344 6.29385742 7.06027344 6.29385742 5.3125 6.30273438 C-1.66573302 6.36347465 -1.66573302 6.36347465 -7.84375 9.2109375 C-10.74123726 12.42128833 -10.74123726 12.42128833 -11.1015625 19.09765625 C-0.5415625 19.09765625 10.0184375 19.09765625 20.8984375 19.09765625 C20.8984375 21.07765625 20.8984375 23.05765625 20.8984375 25.09765625 C10.3384375 25.09765625 -0.2215625 25.09765625 -11.1015625 25.09765625 C-9.49463553 31.76740593 -9.49463553 31.76740593 -5.14355469 36.17724609 C-0.62934044 38.21198876 4.40656628 37.88436011 9.2734375 37.91015625 C10.94986328 37.94786133 10.94986328 37.94786133 12.66015625 37.98632812 C15.40660415 38.04501291 18.15146501 38.08143021 20.8984375 38.09765625 C20.8984375 40.07765625 20.8984375 42.05765625 20.8984375 44.09765625 C16.69023605 44.18508426 12.48226974 44.23819266 8.2734375 44.28515625 C7.08363281 44.31029297 5.89382812 44.33542969 4.66796875 44.36132812 C-6.40099048 44.45408477 -6.40099048 44.45408477 -11.1015625 41.09765625 C-17.43666014 34.47459963 -18.50538518 28.98794696 -18.46728516 20.12768555 C-18.30458466 13.61145591 -17.1609435 9.18825542 -12.5703125 4.55078125 C-8.17522281 0.71585005 -5.72063628 -0.02673195 0 0 Z " fill="#9CEA57" transform="translate(74.1015625,81.90234375)"/>
<path d="M0 0 C1.0236264 0.00424484 1.0236264 0.00424484 2.06793213 0.00857544 C4.23817807 0.01973152 6.40800471 0.04482693 8.578125 0.0703125 C10.05337944 0.08034824 11.52864037 0.08947306 13.00390625 0.09765625 C16.61211442 0.11965563 20.22007875 0.15415367 23.828125 0.1953125 C23.828125 2.1753125 23.828125 4.1553125 23.828125 6.1953125 C13.928125 6.5253125 4.028125 6.8553125 -6.171875 7.1953125 C-6.171875 10.1653125 -6.171875 13.1353125 -6.171875 16.1953125 C-3.62637139 18.74081611 -2.65073451 18.45667975 0.87890625 18.50390625 C2.39194336 18.54161133 2.39194336 18.54161133 3.93554688 18.58007812 C6.06048904 18.61504061 8.18549499 18.64633207 10.31054688 18.67382812 C11.32310547 18.70025391 12.33566406 18.72667969 13.37890625 18.75390625 C14.30356689 18.76736084 15.22822754 18.78081543 16.1809082 18.79467773 C19.33458737 19.27196147 21.23963451 20.36243325 23.828125 22.1953125 C27.07721269 26.78748811 26.56656416 32.84345638 25.828125 38.1953125 C23.61249338 41.16892336 22.08892915 42.56491043 18.828125 44.1953125 C16.50396204 44.28118059 14.17729193 44.30242293 11.8515625 44.29296875 C11.166315 44.2915538 10.4810675 44.29013885 9.77505493 44.28868103 C7.58436739 44.28307925 5.3937817 44.27052656 3.203125 44.2578125 C1.71875148 44.25279772 0.23437635 44.24823478 -1.25 44.24414062 C-4.89065815 44.23310927 -8.53125664 44.21584349 -12.171875 44.1953125 C-12.171875 42.2153125 -12.171875 40.2353125 -12.171875 38.1953125 C-11.30385254 38.18072998 -10.43583008 38.16614746 -9.54150391 38.15112305 C-6.32448621 38.09011139 -3.10811837 38.01596859 0.10839844 37.93286133 C1.50118589 37.89958377 2.89410911 37.87156053 4.28710938 37.84887695 C6.28803878 37.81538561 8.28859421 37.76149945 10.2890625 37.70703125 C12.09576416 37.66775513 12.09576416 37.66775513 13.93896484 37.62768555 C15.36909912 37.41366089 15.36909912 37.41366089 16.828125 37.1953125 C19.12976382 33.74285426 19.17302822 32.24792537 18.828125 28.1953125 C16.23879673 25.60598423 15.15766804 25.94415283 11.55859375 25.921875 C10.50478516 25.90125 9.45097656 25.880625 8.36523438 25.859375 C6.14395645 25.83347088 3.92257615 25.81515965 1.70117188 25.8046875 C-6.41567173 25.62662146 -6.41567173 25.62662146 -10.30859375 23.40625 C-14.15630516 18.84062179 -14.55540767 15.47322476 -14.42578125 9.60546875 C-14.0927126 6.44387864 -13.2641439 4.58647696 -11.171875 2.1953125 C-7.55674768 -0.2264615 -4.26710569 -0.03497628 0 0 Z " fill="#A0E85D" transform="translate(23.171875,81.8046875)"/>
<path d="M0 0 C1.20076172 0.06960937 1.20076172 0.06960937 2.42578125 0.140625 C3.23402344 0.17671875 4.04226563 0.2128125 4.875 0.25 C5.79732422 0.31960937 5.79732422 0.31960937 6.73828125 0.390625 C2.60253953 6.05091465 -1.78795364 11.40384476 -6.40625 16.6796875 C-8.74430996 19.68715891 -8.74430996 19.68715891 -9.26171875 25.390625 C-1.01171875 25.720625 7.23828125 26.050625 15.73828125 26.390625 C15.73828125 17.810625 15.73828125 9.230625 15.73828125 0.390625 C18.04828125 0.390625 20.35828125 0.390625 22.73828125 0.390625 C22.73828125 8.970625 22.73828125 17.550625 22.73828125 26.390625 C24.05828125 26.390625 25.37828125 26.390625 26.73828125 26.390625 C26.73828125 28.370625 26.73828125 30.350625 26.73828125 32.390625 C25.41828125 32.390625 24.09828125 32.390625 22.73828125 32.390625 C22.73828125 36.350625 22.73828125 40.310625 22.73828125 44.390625 C20.42828125 44.390625 18.11828125 44.390625 15.73828125 44.390625 C15.73828125 40.430625 15.73828125 36.470625 15.73828125 32.390625 C13.93101562 32.44863281 12.12375 32.50664063 10.26171875 32.56640625 C7.8789321 32.6133115 5.49611749 32.65881083 3.11328125 32.703125 C1.92347656 32.74501953 0.73367188 32.78691406 -0.4921875 32.83007812 C-10.38732379 32.96827835 -10.38732379 32.96827835 -14.03125 30.15234375 C-16.94454384 26.54516556 -17.42279205 24.82150195 -17.19140625 20.2890625 C-15.13740533 13.88541258 -9.7682126 9.20363869 -5.26171875 4.390625 C-4.48828125 3.21886719 -4.48828125 3.21886719 -3.69921875 2.0234375 C-2.26171875 0.390625 -2.26171875 0.390625 0 0 Z " fill="#0D0D0D" transform="translate(349.26171875,81.609375)"/>
<path d="M0 0 C2.31 0 4.62 0 7 0 C7.01458252 0.88260498 7.02916504 1.76520996 7.04418945 2.67456055 C7.10542067 5.96438643 7.1796033 9.2533993 7.26245117 12.54272461 C7.29560557 13.96351202 7.32366692 15.38442813 7.34643555 16.80541992 C7.38015847 18.8539082 7.43247745 20.9012272 7.48828125 22.94921875 C7.51446533 24.17987061 7.54064941 25.41052246 7.56762695 26.6784668 C8.02940627 30.2259019 8.89695869 32.14037278 11 35 C14.52132465 37.68368853 18.68490724 37.36724687 22.9375 37.375 C23.99227539 37.41173828 23.99227539 37.41173828 25.06835938 37.44921875 C28.70561259 37.46967191 30.78937344 37.13432087 33.87890625 35.1640625 C37.8335999 31.12925536 38.27402309 28.6760879 38.4140625 23.14453125 C38.43342865 22.48289474 38.4527948 21.82125824 38.4727478 21.13957214 C38.53242687 19.03067836 38.57888087 16.92172963 38.625 14.8125 C38.66319066 13.38083585 38.70224303 11.94919441 38.7421875 10.51757812 C38.83811773 7.01192688 38.92219197 3.50610555 39 0 C40.98 0 42.96 0 45 0 C45.07451364 4.3049777 45.12877223 8.60960734 45.16479492 12.91503906 C45.17982196 14.37767075 45.20024955 15.84025782 45.22631836 17.30273438 C45.26297267 19.4128728 45.27978676 21.52241226 45.29296875 23.6328125 C45.3086792 24.90012207 45.32438965 26.16743164 45.34057617 27.47314453 C44.89193519 32.1190711 43.44903847 35.46059833 40.24609375 38.86328125 C39.64925781 39.34152344 39.05242187 39.81976563 38.4375 40.3125 C37.83808594 40.80363281 37.23867188 41.29476562 36.62109375 41.80078125 C32.79790384 44.62902053 28.95149576 44.22071043 24.375 44.25 C23.59253906 44.270625 22.81007813 44.29125 22.00390625 44.3125 C16.0952713 44.35169493 10.10900582 43.73675895 5.47070312 39.65380859 C0.82988154 34.38152543 -0.25392779 29.83651516 -0.1953125 22.94921875 C-0.1924826 22.29041214 -0.18965271 21.63160553 -0.18673706 20.95283508 C-0.17560924 18.86419938 -0.15051948 16.77600444 -0.125 14.6875 C-0.11496059 13.26498018 -0.10583642 11.8424536 -0.09765625 10.41992188 C-0.07569447 6.94647319 -0.04121646 3.47327967 0 0 Z " fill="#99E651" transform="translate(385,82)"/>
<path d="M0 0 C13.86 0 27.72 0 42 0 C42 1.65 42 3.3 42 5 C36.06 5 30.12 5 24 5 C24 17.87 24 30.74 24 44 C21.69 44 19.38 44 17 44 C17 31.46 17 18.92 17 6 C11.39 6 5.78 6 0 6 C0 4.02 0 2.04 0 0 Z " fill="#9AE953" transform="translate(163,82)"/>
<path d="M0 0 C10.56 0 21.12 0 32 0 C32 1.98 32 3.96 32 6 C21.44 6 10.88 6 0 6 C1.60692697 12.66974968 1.60692697 12.66974968 5.95800781 17.07958984 C10.47222206 19.11433251 15.50812878 18.78670386 20.375 18.8125 C22.05142578 18.85020508 22.05142578 18.85020508 23.76171875 18.88867188 C26.50816665 18.94735666 29.25302751 18.98377396 32 19 C32 20.98 32 22.96 32 25 C27.79179855 25.08742801 23.58383224 25.14053641 19.375 25.1875 C18.18519531 25.21263672 16.99539062 25.23777344 15.76953125 25.26367188 C4.68649881 25.35654645 4.68649881 25.35654645 0 22 C-2.375 19.3125 -2.375 19.3125 -4 17 C-1.69 17.66 0.62 18.32 3 19 C2.67 18.01 2.34 17.02 2 16 C1.34 15.67 0.68 15.34 0 15 C0 14.01 0 13.02 0 12 C-0.66 12 -1.32 12 -2 12 C-2.125 6.25 -2.125 6.25 -1 4 C8.9 4 18.8 4 29 4 C29 3.34 29 2.68 29 2 C19.76 2 10.52 2 1 2 C0.67 1.34 0.34 0.68 0 0 Z " fill="#A2EC5D" transform="translate(63,101)"/>
<path d="M0 0 C2.31 0 4.62 0 7 0 C7 14.52 7 29.04 7 44 C4.69 44 2.38 44 0 44 C0 29.48 0 14.96 0 0 Z " fill="#97EA4B" transform="translate(214,82)"/>
<path d="M0 0 C1.51400391 0.01740234 1.51400391 0.01740234 3.05859375 0.03515625 C4.07050781 0.04417969 5.08242187 0.05320312 6.125 0.0625 C7.29869141 0.07990234 7.29869141 0.07990234 8.49609375 0.09765625 C8.82609375 1.41765625 9.15609375 2.73765625 9.49609375 4.09765625 C7.18609375 4.09765625 4.87609375 4.09765625 2.49609375 4.09765625 C2.49609375 16.63765625 2.49609375 29.17765625 2.49609375 42.09765625 C0.51609375 42.09765625 -1.46390625 42.09765625 -3.50390625 42.09765625 C-3.52855263 36.27694003 -3.54674055 30.45625391 -3.55883789 24.63549805 C-3.56387892 22.65372184 -3.57071163 20.67194936 -3.5793457 18.69018555 C-3.5914214 15.84813516 -3.5971367 13.00613378 -3.6015625 10.1640625 C-3.60672379 9.27239883 -3.61188507 8.38073517 -3.61720276 7.46205139 C-3.61739802 5.34025024 -3.56600655 3.21854845 -3.50390625 1.09765625 C-2.50390625 0.09765625 -2.50390625 0.09765625 0 0 Z " fill="#91EC3F" transform="translate(235.50390625,83.90234375)"/>
<path d="M0 0 C2.31 0 4.62 0 7 0 C7.01458252 0.88260498 7.02916504 1.76520996 7.04418945 2.67456055 C7.10542067 5.96438643 7.1796033 9.2533993 7.26245117 12.54272461 C7.29560557 13.96351202 7.32366692 15.38442813 7.34643555 16.80541992 C7.38015847 18.8539082 7.43247745 20.9012272 7.48828125 22.94921875 C7.51446533 24.17987061 7.54064941 25.41052246 7.56762695 26.6784668 C8.02952226 30.22679294 8.8914126 32.14256238 11 35 C14.31105909 37.38806474 17.75505933 37.38530356 21.75 37.625 C22.92046875 37.69976562 24.0909375 37.77453125 25.296875 37.8515625 C26.18890625 37.90054688 27.0809375 37.94953125 28 38 C28 38.33 28 38.66 28 39 C25.79229195 39.08165496 23.58369575 39.13948488 21.375 39.1875 C19.53035156 39.23970703 19.53035156 39.23970703 17.6484375 39.29296875 C13.70146571 38.97602776 11.34632659 38.07512445 8 36 C7.67 35.34 7.34 34.68 7 34 C6.01 33.67 5.02 33.34 4 33 C4.26676204 34.98491642 4.26676204 34.98491642 5 37 C5.99 37.33 6.98 37.66 8 38 C6.515 38.495 6.515 38.495 5 39 C1.0906204 33.32509412 -0.12665496 30.01722505 -0.09765625 23.14453125 C-0.0962413 22.48289474 -0.09482635 21.82125824 -0.09336853 21.13957214 C-0.08777996 19.03050172 -0.07522965 16.92153823 -0.0625 14.8125 C-0.05748352 13.38086091 -0.05292087 11.94922015 -0.04882812 10.51757812 C-0.0378143 7.01168412 -0.02055755 3.5058525 0 0 Z " fill="#A1E75E" transform="translate(385,82)"/>
<path d="M0 0 C1.93842773 0.00966797 1.93842773 0.00966797 3.91601562 0.01953125 C5.27083605 0.03623923 6.62565376 0.05316908 7.98046875 0.0703125 C9.35481126 0.08035247 10.72916078 0.08947654 12.10351562 0.09765625 C15.45851192 0.12120008 18.81315074 0.15408683 22.16796875 0.1953125 C22.16796875 1.8453125 22.16796875 3.4953125 22.16796875 5.1953125 C21.41177246 5.20989502 20.65557617 5.22447754 19.87646484 5.23950195 C16.43146598 5.3142325 12.98740954 5.41081178 9.54296875 5.5078125 C8.35316406 5.53037109 7.16335938 5.55292969 5.9375 5.57617188 C-2.35712294 5.79946809 -2.35712294 5.79946809 -9.83203125 9.1953125 C-10.59515625 9.4634375 -11.35828125 9.7315625 -12.14453125 10.0078125 C-14.12561167 11.12135821 -14.12561167 11.12135821 -14.4453125 13.84765625 C-14.96952534 18.38553913 -14.75107161 22.81062559 -14.57421875 27.3671875 C-14.65929687 28.30046875 -14.744375 29.23375 -14.83203125 30.1953125 C-15.82203125 30.8553125 -16.81203125 31.5153125 -17.83203125 32.1953125 C-17.85923949 29.50774295 -17.87897005 26.82045452 -17.89453125 24.1328125 C-17.90291016 23.38064453 -17.91128906 22.62847656 -17.91992188 21.85351562 C-17.94011466 17.18898132 -17.60799084 12.79608077 -16.83203125 8.1953125 C-15.84203125 7.8653125 -14.85203125 7.5353125 -13.83203125 7.1953125 C-13.39890625 5.98875 -13.39890625 5.98875 -12.95703125 4.7578125 C-11.83203125 2.1953125 -11.83203125 2.1953125 -9.6887207 1.04736328 C-6.32847964 0.04512063 -3.50590532 -0.03088903 0 0 Z " fill="#94EA43" transform="translate(300.83203125,81.8046875)"/>
<path d="M0 0 C1.16781006 0.00523682 2.33562012 0.01047363 3.53881836 0.01586914 C4.79887695 0.0190918 6.05893555 0.02231445 7.35717773 0.02563477 C8.6976732 0.03399136 10.03816799 0.04245632 11.37866211 0.05102539 C12.72306153 0.05603879 14.06746271 0.06060197 15.41186523 0.06469727 C18.71334151 0.07653051 22.01473014 0.09301568 25.31616211 0.11352539 C25.31616211 1.10352539 25.31616211 2.09352539 25.31616211 3.11352539 C24.62055176 3.13858154 23.92494141 3.1636377 23.20825195 3.18945312 C20.03572756 3.30598513 16.86345856 3.42845108 13.69116211 3.55102539 C12.59674805 3.5903418 11.50233398 3.6296582 10.37475586 3.67016602 C8.77954102 3.73300781 8.77954102 3.73300781 7.15209961 3.79711914 C6.17805176 3.83377686 5.20400391 3.87043457 4.20043945 3.90820312 C1.21942744 4.12041162 -1.73594472 4.62220986 -4.68383789 5.11352539 C-4.68383789 9.40352539 -4.68383789 13.69352539 -4.68383789 18.11352539 C-1.3537077 18.77955143 1.42439904 19.26286106 4.74194336 19.42993164 C5.9359375 19.49277344 5.9359375 19.49277344 7.15405273 19.55688477 C7.97067383 19.59620117 8.78729492 19.63551758 9.62866211 19.67602539 C10.88259766 19.74080078 10.88259766 19.74080078 12.16186523 19.80688477 C14.21313146 19.91237846 16.26462691 20.01339854 18.31616211 20.11352539 C18.31616211 20.77352539 18.31616211 21.43352539 18.31616211 22.11352539 C14.94123582 22.17197735 11.56644124 22.20727281 8.19116211 22.23852539 C6.76416992 22.26366211 6.76416992 22.26366211 5.30834961 22.28930664 C-4.26975856 22.35582128 -4.26975856 22.35582128 -8.68383789 20.11352539 C-10.85181843 17.2291145 -10.95520386 14.59243493 -10.93383789 11.05102539 C-10.93899414 10.19379883 -10.94415039 9.33657227 -10.94946289 8.45336914 C-10.68383789 6.11352539 -10.68383789 6.11352539 -8.68383789 3.11352539 C-7.04020655 2.39193115 -5.37333403 1.72001118 -3.68383789 1.11352539 C-2.68383789 0.11352539 -2.68383789 0.11352539 0 0 Z " fill="#8FEE38" transform="translate(19.683837890625,82.886474609375)"/>
<path d="M0 0 C0.99 0.33 1.98 0.66 3 1 C2.67 1.99 2.34 2.98 2 4 C2 7.3 2 10.6 2 14 C15.86 14.495 15.86 14.495 30 15 C30 15.66 30 16.32 30 17 C20.1 17 10.2 17 0 17 C-0.33 19.64 -0.66 22.28 -1 25 C-0.34 25 0.32 25 1 25 C1 25.99 1 26.98 1 28 C1.99 28.33 2.98 28.66 4 29 C4 29.99 4 30.98 4 32 C1.09722226 31.67746914 -0.73297736 31.18711076 -3.140625 29.5 C-5.86289904 25.83979961 -5.58719018 22.69669912 -5.5 18.25 C-5.51546875 17.4765625 -5.5309375 16.703125 -5.546875 15.90625 C-5.50820992 10.14515324 -4.23671342 4.23671342 0 0 Z " fill="#8EEF35" transform="translate(62,88)"/>
<path d="M0 0 C0.66 0 1.32 0 2 0 C3.32 4.29 4.64 8.58 6 13 C7.32 8.71 8.64 4.42 10 0 C10.99 0 11.98 0 13 0 C13.99 4.62 14.98 9.24 16 14 C16.66 14 17.32 14 18 14 C18.09087891 12.98679688 18.09087891 12.98679688 18.18359375 11.953125 C18.26738281 11.06109375 18.35117187 10.1690625 18.4375 9.25 C18.51871094 8.36828125 18.59992187 7.4865625 18.68359375 6.578125 C18.96238465 4.30649548 19.38790577 2.20148177 20 0 C20.99 0 21.98 0 23 0 C22.37968409 6.57534861 20.85102717 12.66692592 19 19 C17.68 19 16.36 19 15 19 C14.79503906 18.21753906 14.59007812 17.43507812 14.37890625 16.62890625 C14.10949219 15.61699219 13.84007812 14.60507813 13.5625 13.5625 C13.16224609 12.04849609 13.16224609 12.04849609 12.75390625 10.50390625 C12.24021923 8.08247999 12.24021923 8.08247999 11 7 C9.68 11.29 8.36 15.58 7 20 C6.01 20 5.02 20 4 20 C3.32331051 17.79471728 2.65906502 15.58561391 2 13.375 C1.62875 12.14523438 1.2575 10.91546875 0.875 9.6484375 C0.06272281 6.26153174 -0.17041013 3.46145571 0 0 Z " fill="#292929" transform="translate(11,142)"/>
<path d="M0 0 C3.33334898 0.76923438 4.48952434 1.74875737 6.4375 4.5625 C7.16822741 9.02805638 6.94511596 10.8458657 4.3125 14.5625 C1.4375 16.5625 1.4375 16.5625 -1.6875 16.625 C-4.99492165 15.402692 -6.02709766 14.71860481 -7.5625 11.5625 C-8.0625 8.625 -8.0625 8.625 -7.5625 5.5625 C-5.24512395 2.51680577 -3.78424087 0.83068702 0 0 Z " fill="#262626" transform="translate(172.5625,146.4375)"/>
<path d="M0 0 C2.3125 1.5 2.3125 1.5 4 4 C4.82443434 8.06387835 4.60581932 11.00645632 2.4375 14.5625 C0 16 0 16 -3.625 15.9375 C-7 15 -7 15 -9 12 C-9.66769706 4.98918083 -9.66769706 4.98918083 -7.3125 1.5 C-4.51333204 -0.31567651 -3.27103386 -0.65420677 0 0 Z " fill="#2A2A2A" transform="translate(255,147)"/>
<path d="M0 0 C1.32 0 2.64 0 4 0 C4.02467917 5.23274388 4.04285003 10.46545403 4.05493164 15.69824219 C4.05996711 17.47917267 4.06679581 19.260099 4.07543945 21.04101562 C4.08753942 23.59766665 4.09323609 26.15426312 4.09765625 28.7109375 C4.10281754 29.50994476 4.10797882 30.30895203 4.11329651 31.13217163 C4.11387171 36.77225659 4.11387171 36.77225659 3 39 C2.34 39 1.68 39 1 39 C1 39.99 1 40.98 1 42 C-1.31 42 -3.62 42 -6 42 C-5.67 41.01 -5.34 40.02 -5 39 C-2.03 38.505 -2.03 38.505 1 38 C0.83701416 36.9989624 0.67402832 35.9979248 0.50610352 34.96655273 C0.01273662 31.09982239 -0.11381949 27.43049717 -0.09765625 23.53515625 C-0.0962413 22.85698349 -0.09482635 22.17881073 -0.09336853 21.48008728 C-0.08782745 19.34084422 -0.07528653 17.20171075 -0.0625 15.0625 C-0.05747736 13.60091298 -0.0529158 12.13932431 -0.04882812 10.67773438 C-0.03787745 7.11845474 -0.02065445 3.55923809 0 0 Z " fill="#8CF034" transform="translate(266,83)"/>
<path d="M0 0 C12.87 0 25.74 0 39 0 C39 0.99 39 1.98 39 3 C33.72 2.67 28.44 2.34 23 2 C22.0268319 4.9195043 21.8070454 7.05444951 21.68359375 10.10546875 C21.64169922 11.08837891 21.59980469 12.07128906 21.55664062 13.08398438 C21.51732422 14.10814453 21.47800781 15.13230469 21.4375 16.1875 C21.39431641 17.22326172 21.35113281 18.25902344 21.30664062 19.32617188 C21.20055634 21.8839819 21.09849854 24.44188845 21 27 C20.67 27 20.34 27 20 27 C20 20.73 20 14.46 20 8 C19.34 8 18.68 8 18 8 C17.67 7.01 17.34 6.02 17 5 C11.72 4.67 6.44 4.34 1 4 C0.67 2.68 0.34 1.36 0 0 Z " fill="#8DEF36" transform="translate(164,83)"/>
<path d="M0 0 C10.56 0 21.12 0 32 0 C32 1.98 32 3.96 32 6 C21.44 6 10.88 6 0 6 C0.33 8.97 0.66 11.94 1 15 C0.67 14.01 0.34 13.02 0 12 C-0.66 12 -1.32 12 -2 12 C-2.125 6.25 -2.125 6.25 -1 4 C8.9 4 18.8 4 29 4 C29 3.34 29 2.68 29 2 C19.76 2 10.52 2 1 2 C0.67 1.34 0.34 0.68 0 0 Z " fill="#9EE65D" transform="translate(63,101)"/>
<path d="M0 0 C3.4375 0.25 3.4375 0.25 7 1 C9.35119399 4.52679099 9.21443452 6.02879485 9.125 10.1875 C9.10695313 11.27417969 9.08890625 12.36085937 9.0703125 13.48046875 C9.03550781 14.72763672 9.03550781 14.72763672 9 16 C8.360625 15.814375 7.72125 15.62875 7.0625 15.4375 C6.0415625 15.2209375 6.0415625 15.2209375 5 15 C4.67 15.33 4.34 15.66 4 16 C1.5625 16.1875 1.5625 16.1875 -1 16 C-3 14 -3 14 -3.125 10.875 C-3.08375 9.92625 -3.0425 8.9775 -3 8 C0.13498292 6.14223235 2.37471432 5.79859524 6 6 C5.67 5.34 5.34 4.68 5 4 C1.95613276 3.91773332 -0.07175348 4.02391783 -3 5 C-1.125 1.125 -1.125 1.125 0 0 Z " fill="#333333" transform="translate(377,147)"/>
<path d="M0 0 C3.625 0.375 3.625 0.375 6.0625 2.25 C7.625 4.375 7.625 4.375 7.625 6.375 C6.635 6.375 5.645 6.375 4.625 6.375 C3.965 5.385 3.305 4.395 2.625 3.375 C0.125 2.875 0.125 2.875 -2.375 3.375 C-4.37325961 6.37238941 -4.65050398 7.00847508 -4.625 10.375 C-4.63273438 11.3959375 -4.63273438 11.3959375 -4.640625 12.4375 C-4.47417603 14.69916007 -4.47417603 14.69916007 -2.375 17.375 C1.19269552 18.11106499 1.19269552 18.11106499 4.625 18.375 C4.625 16.725 4.625 15.075 4.625 13.375 C3.305 13.375 1.985 13.375 0.625 13.375 C0.625 12.385 0.625 11.395 0.625 10.375 C2.935 10.375 5.245 10.375 7.625 10.375 C7.625 13.345 7.625 16.315 7.625 19.375 C3.57302499 21.40098751 2.00841943 22.00120278 -2.375 21.375 C-4.94785724 19.202365 -6.86496919 17.39506162 -8.375 14.375 C-8.75434197 9.34871884 -8.39948301 6.44641944 -5.375 2.375 C-3.375 0.375 -3.375 0.375 0 0 Z " fill="#212121" transform="translate(146.375,141.625)"/>
<path d="M0 0 C1.33332095 2.6666419 0.67102033 4.16680303 0 7 C1.30453125 6.9278125 2.6090625 6.855625 3.953125 6.78125 C13.31177017 6.27893466 22.62520768 5.8285099 32 6 C33.38125018 8.76250036 33.19079306 10.94731099 33 14 C31 16 31 16 28.01904297 16.22705078 C26.77268066 16.21657715 25.52631836 16.20610352 24.2421875 16.1953125 C23.57913605 16.1924826 22.91608459 16.18965271 22.23294067 16.18673706 C20.11344417 16.17553435 17.99436896 16.15043051 15.875 16.125 C14.43880818 16.11497028 13.00260975 16.10584441 11.56640625 16.09765625 C8.04413372 16.075595 4.52210797 16.04106494 1 16 C1.33 17.98 1.66 19.96 2 22 C0.5 20.8125 0.5 20.8125 -1 19 C-1 17.35 -1 15.7 -1 14 C9.56 14 20.12 14 31 14 C31 12.02 31 10.04 31 8 C20.44 8 9.88 8 -1 8 C-1 1 -1 1 0 0 Z " fill="#EFFED7" transform="translate(64,93)"/>
<path d="M0 0 C7.26 0 14.52 0 22 0 C22.103125 2.97 22.20625 5.94 22.3125 9 C22.38078003 10.37865234 22.38078003 10.37865234 22.45043945 11.78515625 C22.55232665 17.91679322 21.22974426 22.42472733 17 27 C13.89952879 29.02705764 11.46018725 29.23790915 7.796875 29.1953125 C6.32734375 29.18564453 6.32734375 29.18564453 4.828125 29.17578125 C3.81234375 29.15902344 2.7965625 29.14226562 1.75 29.125 C0.71875 29.11597656 -0.3125 29.10695313 -1.375 29.09765625 C-3.91690287 29.07412011 -6.4583328 29.04124023 -9 29 C-9 28.67 -9 28.34 -9 28 C-8.42032471 27.98018066 -7.84064941 27.96036133 -7.2434082 27.93994141 C-4.59934063 27.84427399 -1.9560183 27.73476547 0.6875 27.625 C2.05551758 27.57859375 2.05551758 27.57859375 3.45117188 27.53125 C10.01212765 27.37355522 10.01212765 27.37355522 16 25 C19.69899492 20.72941646 19.53770731 16.06791773 19.6875 10.6875 C19.790625 7.820625 19.89375 4.95375 20 2 C13.73 2 7.46 2 1 2 C1 2.99 1 3.98 1 5 C5.29 5 9.58 5 14 5 C14 5.33 14 5.66 14 6 C9.38 6 4.76 6 0 6 C0 4.02 0 2.04 0 0 Z " fill="#A6E769" transform="translate(302,97)"/>
<path d="M0 0 C2.8125 1 2.8125 1 4.8125 4 C4.8125 5.65 4.8125 7.3 4.8125 9 C1.5125 9 -1.7875 9 -5.1875 9 C-4.8575 10.32 -4.5275 11.64 -4.1875 13 C-1.5475 12.67 1.0925 12.34 3.8125 12 C3.1525 13.32 2.4925 14.64 1.8125 16 C-0.9375 16.3125 -0.9375 16.3125 -4.1875 16 C-7.04562053 13.44273427 -8.04317742 11.76972041 -8.75 8 C-7.79545738 2.90910602 -5.30459154 0 0 0 Z " fill="#0E0E0E" transform="translate(51.1875,147)"/>
<path d="M0 0 C2.8125 1 2.8125 1 4.8125 4 C4.8125 5.65 4.8125 7.3 4.8125 9 C1.5125 9 -1.7875 9 -5.1875 9 C-4.8575 9.99 -4.5275 10.98 -4.1875 12 C-1.5475 12 1.0925 12 3.8125 12 C3.1525 13.32 2.4925 14.64 1.8125 16 C-0.9375 16.3125 -0.9375 16.3125 -4.1875 16 C-7.04562053 13.44273427 -8.04317742 11.76972041 -8.75 8 C-7.79545738 2.90910602 -5.30459154 0 0 0 Z " fill="#2D2D2D" transform="translate(108.1875,147)"/>
<path d="M0 0 C2.8125 1 2.8125 1 4.8125 4 C4.8125 5.65 4.8125 7.3 4.8125 9 C1.5125 9 -1.7875 9 -5.1875 9 C-4.8575 9.99 -4.5275 10.98 -4.1875 12 C-1.5475 12 1.0925 12 3.8125 12 C3.1525 13.32 2.4925 14.64 1.8125 16 C-0.9375 16.3125 -0.9375 16.3125 -4.1875 16 C-7.04562053 13.44273427 -8.04317742 11.76972041 -8.75 8 C-7.79545738 2.90910602 -5.30459154 0 0 0 Z " fill="#0A0A0A" transform="translate(358.1875,147)"/>
<path d="M0 0 C1.9375 0.375 1.9375 0.375 4 1 C4.33 1.66 4.66 2.32 5 3 C8.53244592 4.76177793 11.38028875 5.24116621 15.30078125 5.1953125 C16.27724609 5.18886719 17.25371094 5.18242188 18.25976562 5.17578125 C19.77086914 5.15064453 19.77086914 5.15064453 21.3125 5.125 C22.85260742 5.11146484 22.85260742 5.11146484 24.42382812 5.09765625 C26.94945899 5.07416201 29.4746081 5.04131131 32 5 C32 5.99 32 6.98 32 8 C27.22881567 10.4638083 22.73427243 10.29809439 17.5 10.25 C16.23736328 10.26160156 16.23736328 10.26160156 14.94921875 10.2734375 C10.59776149 10.25973212 6.86463072 10.24253233 3 8 C0 3.03448276 0 3.03448276 0 0 Z " fill="#8FEE3A" transform="translate(389,115)"/>
<path d="M0 0 C3.70543535 0.31943408 5.1286282 0.61641846 7.625 3.3125 C7.625 4.3025 7.625 5.2925 7.625 6.3125 C6.635 6.3125 5.645 6.3125 4.625 6.3125 C3.965 5.3225 3.305 4.3325 2.625 3.3125 C-0.45865871 3.0622843 -0.45865871 3.0622843 -3.375 3.3125 C-2.87952457 5.76881001 -2.87952457 5.76881001 -1.375 8.3125 C2.079817 10.04318271 2.079817 10.04318271 5.625 11.3125 C7.625 13.3125 7.625 13.3125 8 15.75 C7.625 18.3125 7.625 18.3125 6 20.125 C2.94418523 21.65290738 1.00555907 21.73506988 -2.375 21.3125 C-4.75 20 -4.75 20 -6.375 18.3125 C-6.375 17.3225 -6.375 16.3325 -6.375 15.3125 C-5.570625 15.8075 -5.570625 15.8075 -4.75 16.3125 C-1.8358939 17.53949204 0.49367708 17.45483286 3.625 17.3125 C3.955 15.9925 4.285 14.6725 4.625 13.3125 C3.99851562 13.13074219 3.37203125 12.94898438 2.7265625 12.76171875 C1.90929687 12.51035156 1.09203125 12.25898438 0.25 12 C-0.56210937 11.75636719 -1.37421875 11.51273438 -2.2109375 11.26171875 C-4.375 10.3125 -4.375 10.3125 -6.375 7.3125 C-5.90553111 2.50044391 -5.10270884 0.47247304 0 0 Z " fill="#212121" transform="translate(332.375,141.6875)"/>
<path d="M0 0 C1.32 0 2.64 0 4 0 C4.0744389 4.0384057 4.12873729 8.07654293 4.16479492 12.11547852 C4.17983432 13.48794517 4.20027133 14.86036414 4.22631836 16.23266602 C4.26291221 18.21088656 4.27816698 20.18946514 4.29296875 22.16796875 C4.3086792 23.35672607 4.32438965 24.5454834 4.34057617 25.77026367 C3.96779498 29.30540516 3.16671072 31.20444602 1 34 C0.34 34 -0.32 34 -1 34 C-0.67 22.78 -0.34 11.56 0 0 Z " fill="#8DF034" transform="translate(425,83)"/>
<path d="M0 0 C0.66 0 1.32 0 2 0 C2.04254356 1.99954746 2.04080783 4.00041636 2 6 C1.67 6.33 1.34 6.66 1 7 C-4.61 7 -10.22 7 -16 7 C-16 19.21 -16 31.42 -16 44 C-16.66 44 -17.32 44 -18 44 C-18 31.13 -18 18.26 -18 5 C-12.06 5 -6.12 5 0 5 C0 3.35 0 1.7 0 0 Z " fill="#ECFED2" transform="translate(205,82)"/>
<path d="M0 0 C1.32 0 2.64 0 4 0 C4.02469575 4.09341499 4.04285793 8.18680121 4.05493164 12.28027344 C4.0599643 13.67318477 4.06679098 15.0660908 4.07543945 16.45898438 C4.08755152 18.45961246 4.09270412 20.46027888 4.09765625 22.4609375 C4.10289307 23.66540527 4.10812988 24.86987305 4.11352539 26.11083984 C4 29 4 29 3 31 C2.01 30.67 1.02 30.34 0 30 C0 20.1 0 10.2 0 0 Z " fill="#8DF036" transform="translate(387,83)"/>
<path d="M0 0 C0.99 0 1.98 0 3 0 C3 4.29 3 8.58 3 13 C4.98 13 6.96 13 9 13 C9 9.04 9 5.08 9 1 C9.99 0.67 10.98 0.34 12 0 C12 5.28 12 10.56 12 16 C10.576875 16.061875 9.15375 16.12375 7.6875 16.1875 C6.48673828 16.23970703 6.48673828 16.23970703 5.26171875 16.29296875 C3 16 3 16 1.21875 14.90625 C-0.60763905 12.0495902 -0.28691682 9.65953295 -0.1875 6.3125 C-0.16042969 5.13300781 -0.13335937 3.95351562 -0.10546875 2.73828125 C-0.07066406 1.83464844 -0.03585937 0.93101562 0 0 Z " fill="#2E2E2E" transform="translate(270,147)"/>
<path d="M0 0 C0.66 0 1.32 0 2 0 C2 4.62 2 9.24 2 14 C5.33013019 14.66602604 8.10823693 15.14933567 11.42578125 15.31640625 C12.22177734 15.35830078 13.01777344 15.40019531 13.83789062 15.44335938 C14.65451172 15.48267578 15.47113281 15.52199219 16.3125 15.5625 C17.14845703 15.60568359 17.98441406 15.64886719 18.84570312 15.69335938 C20.89696935 15.79885307 22.9484648 15.89987315 25 16 C25 16.66 25 17.32 25 18 C21.58335127 18.02908357 18.1667345 18.04682691 14.75 18.0625 C13.78191406 18.07087891 12.81382813 18.07925781 11.81640625 18.08789062 C10.88183594 18.09111328 9.94726562 18.09433594 8.984375 18.09765625 C8.12553711 18.10289307 7.26669922 18.10812988 6.38183594 18.11352539 C4.11329256 18.00539986 2.17368285 17.63582423 0 17 C-1.58019115 12.16066459 -2.39687998 8.15943969 -2 3 C-1.34 2.01 -0.68 1.02 0 0 Z " fill="#8CF034" transform="translate(13,87)"/>
<path d="M0 0 C2.475 0.495 2.475 0.495 5 1 C5.66 3.31 6.32 5.62 7 8 C6.34 8 5.68 8 5 8 C5 7.34 5 6.68 5 6 C4.01 6.495 4.01 6.495 3 7 C2.67 17.23 2.34 27.46 2 38 C1.34 38 0.68 38 0 38 C0 25.46 0 12.92 0 0 Z " fill="#E4FACB" transform="translate(238,88)"/>
<path d="M0 0 C1.875 1.375 1.875 1.375 3 3 C3 3.66 3 4.32 3 5 C-1.455 4.01 -1.455 4.01 -6 3 C-6 3.99 -6 4.98 -6 6 C-3.36 6.66 -0.72 7.32 2 8 C2.33 9.65 2.66 11.3 3 13 C0.77769156 14.97538528 -0.58699552 15.93956032 -3.5625 16.375 C-6 16 -6 16 -7.8125 14.625 C-9 13 -9 13 -9 11 C-4.545 11.99 -4.545 11.99 0 13 C-0.33 12.01 -0.66 11.02 -1 10 C-2.7325 9.2884375 -2.7325 9.2884375 -4.5 8.5625 C-8 7 -8 7 -9.125 5 C-9 3 -9 3 -7.9375 1.25 C-5.15593839 -0.54455588 -3.24250962 -0.4053137 0 0 Z " fill="#1C1C1C" transform="translate(423,147)"/>
<path d="M0 0 C0.66 0.33 1.32 0.66 2 1 C1.34 3.31 0.68 5.62 0 8 C0.99 8 1.98 8 3 8 C3.33 8.66 3.66 9.32 4 10 C4.96039185 9.97643433 4.96039185 9.97643433 5.94018555 9.95239258 C8.85586631 9.88982885 11.77140555 9.85094192 14.6875 9.8125 C15.69490234 9.78736328 16.70230469 9.76222656 17.74023438 9.73632812 C27.19082153 9.64275796 27.19082153 9.64275796 31 13 C31.8125 15.1875 31.8125 15.1875 32 17 C32.66 17 33.32 17 34 17 C34.495 23.93 34.495 23.93 35 31 C34.01 31 33.02 31 32 31 C31.93941406 30.18015625 31.87882812 29.3603125 31.81640625 28.515625 C31.73261719 27.43796875 31.64882813 26.3603125 31.5625 25.25 C31.48128906 24.18265625 31.40007813 23.1153125 31.31640625 22.015625 C31.15978516 20.52289063 31.15978516 20.52289063 31 19 C30.92652344 18.25234375 30.85304688 17.5046875 30.77734375 16.734375 C30.11618418 14.76527195 30.11618418 14.76527195 27.78979492 13.91088867 C24.8965046 12.96620799 22.61964191 12.7321289 19.5859375 12.69140625 C18.57789062 12.66626953 17.56984375 12.64113281 16.53125 12.61523438 C14.4193344 12.57994866 12.30734715 12.54872807 10.1953125 12.52148438 C9.18984375 12.49505859 8.184375 12.46863281 7.1484375 12.44140625 C6.23239746 12.42795166 5.31635742 12.41449707 4.37255859 12.40063477 C2 12 2 12 0.19384766 10.69506836 C-1.75696944 7.92522723 -1.23796333 5.27199585 -1 2 C-0.67 1.34 -0.34 0.68 0 0 Z " fill="#ECFED9" transform="translate(17,89)"/>
<path d="M0 0 C0.99 0.33 1.98 0.66 3 1 C2.67 1.99 2.34 2.98 2 4 C1.9314505 5.89470816 1.91519628 7.7916834 1.9375 9.6875 C1.94652344 10.68136719 1.95554687 11.67523438 1.96484375 12.69921875 C1.97644531 13.45847656 1.98804688 14.21773437 2 15 C0.35 15.33 -1.3 15.66 -3 16 C-2.90460937 16.60328125 -2.80921875 17.2065625 -2.7109375 17.828125 C-2.54464844 19.02695313 -2.54464844 19.02695313 -2.375 20.25 C-2.25898437 21.03890625 -2.14296875 21.8278125 -2.0234375 22.640625 C-1.99680605 25.32152459 -2.63407916 26.72694089 -4 29 C-5.65986999 25.68026002 -5.26874656 22.0211202 -5.3125 18.375 C-5.34150391 17.59253906 -5.37050781 16.81007813 -5.40039062 16.00390625 C-5.46368174 10.13243796 -4.14388377 5.9628508 -1 1 C-0.67 0.67 -0.34 0.34 0 0 Z " fill="#94EA45" transform="translate(62,88)"/>
<path d="M0 0 C2.31 0 4.62 0 7 0 C7.04940499 5.64166991 7.08572193 11.28321413 7.10986328 16.92504883 C7.11992639 18.84466749 7.13357816 20.76427081 7.15087891 22.68383789 C7.17511364 25.44160752 7.18647992 28.19917464 7.1953125 30.95703125 C7.20563507 31.81649857 7.21595764 32.67596588 7.22659302 33.56147766 C7.22674408 34.36208115 7.22689514 35.16268463 7.22705078 35.98754883 C7.231492 36.6914827 7.23593323 37.39541656 7.24050903 38.12068176 C7 40 7 40 5 43 C4.34 43 3.68 43 3 43 C3 42.01 3 41.02 3 40 C3.66 40 4.32 40 5 40 C5.33 27.13 5.66 14.26 6 1 C4.35 1 2.7 1 1 1 C1 13.21 1 25.42 1 38 C0.67 38 0.34 38 0 38 C0 25.46 0 12.92 0 0 Z " fill="#ADEC71" transform="translate(264,82)"/>
<path d="M0 0 C0.99 0 1.98 0 3 0 C4.65 2.97 6.3 5.94 8 9 C9.65 6.03 11.3 3.06 13 0 C13.99 0 14.98 0 16 0 C14.89482854 3.03922153 13.65694951 5.55095989 11.9375 8.3125 C9.65466974 12.16530646 9.31116885 15.56584393 9 20 C8.34 20 7.68 20 7 20 C6.6596875 18.0509375 6.6596875 18.0509375 6.3125 16.0625 C5.31364661 11.4546508 3.46711304 7.85217656 1.0234375 3.84765625 C0 2 0 2 0 0 Z " fill="#080808" transform="translate(221,142)"/>
<path d="M0 0 C7.59 0 15.18 0 23 0 C23 1.32 23 2.64 23 4 C16.07 4 9.14 4 2 4 C2 3.01 2 2.02 2 1 C1.34 0.67 0.68 0.34 0 0 Z " fill="#8FED39" transform="translate(69,121)"/>
<path d="M0 0 C0.33 0 0.66 0 1 0 C1 12.54 1 25.08 1 38 C-0.32 37.67 -1.64 37.34 -3 37 C-4.27663139 34.5752973 -5.25602958 32.3649709 -6.1875 29.8125 C-6.44724609 29.15185547 -6.70699219 28.49121094 -6.97460938 27.81054688 C-8.46929839 23.89809217 -9.46094916 20.17602035 -10 16 C-7.16625119 19.20336822 -6.4794463 21.78087253 -6 26 C-5.01 26.33 -4.02 26.66 -3 27 C-2.34 29.64 -1.68 32.28 -1 35 C-0.67 23.45 -0.34 11.9 0 0 Z " fill="#EFFEDC" transform="translate(263,82)"/>
<path d="M0 0 C1.32 0 2.64 0 4 0 C4 12.21 4 24.42 4 37 C3.67 37 3.34 37 3 37 C3 27.76 3 18.52 3 9 C2.34 9 1.68 9 1 9 C1 14.61 1 20.22 1 26 C0.67 26 0.34 26 0 26 C0 17.42 0 8.84 0 0 Z " fill="#90EB3D" transform="translate(266,83)"/>
<path d="M0 0 C1.41569064 -0.08167446 2.83276805 -0.13949698 4.25 -0.1875 C5.43335938 -0.23970703 5.43335938 -0.23970703 6.640625 -0.29296875 C9.64478312 0.08006413 10.86486272 0.86486272 13 3 C14.046875 5.48046875 14.046875 5.48046875 14.75 8.1875 C14.99234375 9.08855469 15.2346875 9.98960938 15.484375 10.91796875 C15.65453125 11.60503906 15.8246875 12.29210937 16 13 C14.35 11.35 12.7 9.7 11 8 C11.309375 8.639375 11.61875 9.27875 11.9375 9.9375 C13.31935403 13.92049104 13.6536543 17.81650849 14 22 C11.89149671 18.83724506 10.71169124 15.86528462 9.375 12.3125 C8.92898437 11.13300781 8.48296875 9.95351562 8.0234375 8.73828125 C7.68570313 7.83464844 7.34796875 6.93101563 7 6 C7.99 6 8.98 6 10 6 C9.67 4.68 9.34 3.36 9 2 C5.7 2 2.4 2 -1 2 C-0.67 1.34 -0.34 0.68 0 0 Z " fill="#9EE855" transform="translate(235,82)"/>
<path d="M0 0 C1.6097168 0.00966797 1.6097168 0.00966797 3.25195312 0.01953125 C4.9312793 0.04466797 4.9312793 0.04466797 6.64453125 0.0703125 C7.77568359 0.07933594 8.90683594 0.08835937 10.07226562 0.09765625 C12.86739953 0.12124388 15.6621097 0.1541595 18.45703125 0.1953125 C18.12703125 1.1853125 17.79703125 2.1753125 17.45703125 3.1953125 C13.49946481 3.42046751 9.54105537 3.62258598 5.58203125 3.8203125 C4.45410156 3.88476562 3.32617188 3.94921875 2.1640625 4.015625 C1.08769531 4.0671875 0.01132813 4.11875 -1.09765625 4.171875 C-2.09265137 4.22424316 -3.08764648 4.27661133 -4.11279297 4.33056641 C-6.54296875 4.1953125 -6.54296875 4.1953125 -8.54296875 2.1953125 C-5.14399202 -0.07067198 -3.97977702 -0.04211404 0 0 Z " fill="#8FEE36" transform="translate(75.54296875,82.8046875)"/>
<path d="M0 0 C0.99 0 1.98 0 3 0 C3 1.32 3 2.64 3 4 C3.66 4 4.32 4 5 4 C5 4.66 5 5.32 5 6 C4.34 6 3.68 6 3 6 C3 9.3 3 12.6 3 16 C3.99 16 4.98 16 6 16 C6 16.99 6 17.98 6 19 C1.125 18.125 1.125 18.125 0 17 C-0.07226502 15.14712498 -0.0838122 13.29166122 -0.0625 11.4375 C-0.05347656 10.42558594 -0.04445313 9.41367188 -0.03515625 8.37109375 C-0.02355469 7.58863281 -0.01195312 6.80617187 0 6 C-0.99 6 -1.98 6 -3 6 C-3 5.01 -3 4.02 -3 3 C-2.01 3 -1.02 3 0 3 C0 2.01 0 1.02 0 0 Z " fill="#171717" transform="translate(398,144)"/>
<path d="M0 0 C0.99 0 1.98 0 3 0 C3 1.32 3 2.64 3 4 C3.66 4 4.32 4 5 4 C5 4.66 5 5.32 5 6 C4.34 6 3.68 6 3 6 C3 9.3 3 12.6 3 16 C3.99 16 4.98 16 6 16 C6 16.99 6 17.98 6 19 C1.125 18.125 1.125 18.125 0 17 C-0.07226502 15.14712498 -0.0838122 13.29166122 -0.0625 11.4375 C-0.05347656 10.42558594 -0.04445312 9.41367188 -0.03515625 8.37109375 C-0.02355469 7.58863281 -0.01195312 6.80617187 0 6 C-0.99 6 -1.98 6 -3 6 C-3 5.01 -3 4.02 -3 3 C-2.01 3 -1.02 3 0 3 C0 2.01 0 1.02 0 0 Z " fill="#292929" transform="translate(191,144)"/>
<path d="M0 0 C6.27 0 12.54 0 19 0 C19 1.32 19 2.64 19 4 C12.73 4 6.46 4 0 4 C0 2.68 0 1.36 0 0 Z " fill="#8EED39" transform="translate(13,121)"/>
<path d="M0 0 C1.99954746 -0.04254356 4.00041636 -0.04080783 6 0 C7 1 7 1 7.1328125 2.8125 C7.13023437 3.534375 7.12765625 4.25625 7.125 5 C7.12757813 5.721875 7.13015625 6.44375 7.1328125 7.1875 C7 9 7 9 6 10 C4.00041636 10.04080783 1.99954746 10.04254356 0 10 C-1.36952673 7.26094655 -1.12621361 5.02912668 -1 2 C-0.67 1.34 -0.34 0.68 0 0 Z " fill="#F4F4F4" transform="translate(169,150)"/>
<path d="M0 0 C1.1446875 1.175625 1.1446875 1.175625 2.3125 2.375 C7.31062684 7.25689133 10.32397307 7.36454383 16.9375 7.375 C18.15469727 7.41173828 18.15469727 7.41173828 19.39648438 7.44921875 C24.37081314 7.49826428 24.37081314 7.49826428 28.56640625 4.9765625 C29.03949219 4.32429688 29.51257813 3.67203125 30 3 C30 4.65 30 6.3 30 8 C27.53879159 9.23060421 25.74223134 9.2057723 22.9921875 9.31640625 C22.00605469 9.35830078 21.01992188 9.40019531 20.00390625 9.44335938 C18.97136719 9.48267578 17.93882812 9.52199219 16.875 9.5625 C15.31458984 9.62727539 15.31458984 9.62727539 13.72265625 9.69335938 C11.14857472 9.7996288 8.57439492 9.90166583 6 10 C6 10.99 6 11.98 6 13 C3.97954558 12.39816251 1.97888961 11.72693904 0 11 C-0.33 10.34 -0.66 9.68 -1 9 C0.65 9 2.3 9 4 9 C4 8.34 4 7.68 4 7 C3.34 7 2.68 7 2 7 C2 6.01 2 5.02 2 4 C1.34 4 0.68 4 0 4 C0 2.68 0 1.36 0 0 Z " fill="#A1EA5B" transform="translate(287,112)"/>
<path d="M0 0 C0.66 0.33 1.32 0.66 2 1 C1.37085179 5.65569675 1.37085179 5.65569675 -0.53125 7.42163086 C-2.7332513 9.78797701 -2.2127372 12.12750654 -2.1171875 15.20898438 C-2.07851563 15.98564453 -2.03984375 16.76230469 -2 17.5625 C-1.85805888 20.42734499 -1.85832479 23.12222231 -2 26 C-2.99 26.66 -3.98 27.32 -5 28 C-5.02720824 25.31243045 -5.0469388 22.62514202 -5.0625 19.9375 C-5.07087891 19.18533203 -5.07925781 18.43316406 -5.08789062 17.65820312 C-5.10808341 12.99366882 -4.77595959 8.60076827 -4 4 C-3.01 3.67 -2.02 3.34 -1 3 C-0.67 2.01 -0.34 1.02 0 0 Z " fill="#8DEF37" transform="translate(288,86)"/>
<path d="M0 0 C2.4375 0.1875 2.4375 0.1875 3.4375 1.1875 C3.5703125 3 3.5703125 3 3.5625 5.1875 C3.56507813 5.909375 3.56765625 6.63125 3.5703125 7.375 C3.4375 9.1875 3.4375 9.1875 2.4375 10.1875 C0 10.375 0 10.375 -2.5625 10.1875 C-4.5625 8.1875 -4.5625 8.1875 -4.8125 5.1875 C-4.49521834 1.38012011 -3.88988006 0.28462537 0 0 Z " fill="#F4F4F4" transform="translate(252.5625,149.8125)"/>
<path d="M0 0 C0.99 0 1.98 0 3 0 C3.99 2.97 4.98 5.94 6 9 C7.32 6.36 8.64 3.72 10 1 C10.66 1 11.32 1 12 1 C11.36843005 6.05255964 9.86540627 10.29593201 8 15 C7.01 15 6.02 15 5 15 C4.16013916 13.06532058 3.32831973 11.12714871 2.5 9.1875 C2.0359375 8.10855469 1.571875 7.02960938 1.09375 5.91796875 C0 3 0 3 0 0 Z " fill="#252525" transform="translate(78,147)"/>
<path d="M0 0 C0.66 0 1.32 0 2 0 C3.32 4.29 4.64 8.58 6 13 C6.99 12.01 7.98 11.02 9 10 C8.54177532 13.46941546 8.10868317 16.67395049 7 20 C6.01 20 5.02 20 4 20 C3.32331051 17.79471728 2.65906502 15.58561391 2 13.375 C1.62875 12.14523438 1.2575 10.91546875 0.875 9.6484375 C0.06272281 6.26153174 -0.17041013 3.46145571 0 0 Z " fill="#262626" transform="translate(11,142)"/>
<path d="M0 0 C0.8101799 2.26850373 1.11659986 3.59837827 0.4375 5.9375 C-1.96981846 9.39147866 -5.22183591 12.11091796 -9 14 C-12.93233643 14.24298891 -16.8734991 14.18520321 -20.8125 14.1875 C-22.4531543 14.20586914 -22.4531543 14.20586914 -24.12695312 14.22460938 C-25.7134668 14.22750977 -25.7134668 14.22750977 -27.33203125 14.23046875 C-28.78186401 14.23663208 -28.78186401 14.23663208 -30.26098633 14.24291992 C-33.21677093 13.98077484 -35.35984776 13.34428558 -38 12 C-38.8125 9.875 -38.8125 9.875 -39 8 C-37.27473958 8.74869792 -35.54947917 9.49739583 -33.82421875 10.24609375 C-29.16064246 12.17343898 -25.15916007 12.25288777 -20.1875 12.3125 C-19.39279297 12.34150391 -18.59808594 12.37050781 -17.77929688 12.40039062 C-12.33991453 12.45887861 -9.32078525 11.59846553 -5 8 C-2.55136689 5.28664979 -1.1565211 3.46956331 0 0 Z " fill="#ECFDD7" transform="translate(429,113)"/>
<path d="M0 0 C2.31 0 4.62 0 7 0 C7 2.97 7 5.94 7 9 C2.98113663 11.00943169 1.34323398 11.36963693 -3 11 C-3.99 10.34 -4.98 9.68 -6 9 C-6 8.34 -6 7.68 -6 7 C-2.7 7.33 0.6 7.66 4 8 C4 6.35 4 4.7 4 3 C2.68 3 1.36 3 0 3 C0 2.01 0 1.02 0 0 Z " fill="#3D3D3D" transform="translate(147,152)"/>
<path d="M0 0 C0.66 0 1.32 0 2 0 C2.04254356 1.99954746 2.04080783 4.00041636 2 6 C1 7 1 7 -1.86743164 7.11352539 C-3.11903076 7.10828857 -4.37062988 7.10305176 -5.66015625 7.09765625 C-6.65685585 7.09553383 -6.65685585 7.09553383 -7.6736908 7.09336853 C-9.80333899 7.08775518 -11.93288339 7.07520054 -14.0625 7.0625 C-15.50325369 7.05748671 -16.94400903 7.05292351 -18.38476562 7.04882812 C-21.92321102 7.03778145 -25.46159539 7.02050792 -29 7 C-25.50663182 4.67108788 -24.13992135 4.76448857 -20.01953125 4.8046875 C-18.27446289 4.81435547 -18.27446289 4.81435547 -16.49414062 4.82421875 C-15.27919922 4.84097656 -14.06425781 4.85773438 -12.8125 4.875 C-11.58595703 4.88402344 -10.35941406 4.89304687 -9.09570312 4.90234375 C-6.06360705 4.92593983 -3.03190062 4.95886159 0 5 C0 3.35 0 1.7 0 0 Z " fill="#DBFBBD" transform="translate(323,82)"/>
<path d="M0 0 C1.21171875 0.00322266 2.4234375 0.00644531 3.671875 0.00976562 C4.94289063 0.01814453 6.21390625 0.02652344 7.5234375 0.03515625 C8.8021875 0.03966797 10.0809375 0.04417969 11.3984375 0.04882812 C14.56515042 0.06064422 17.73177106 0.0771181 20.8984375 0.09765625 C20.8984375 2.07765625 20.8984375 4.05765625 20.8984375 6.09765625 C13.9684375 6.09765625 7.0384375 6.09765625 -0.1015625 6.09765625 C-0.1015625 5.76765625 -0.1015625 5.43765625 -0.1015625 5.09765625 C1.17460938 5.06027344 2.45078125 5.02289063 3.765625 4.984375 C5.43492588 4.91872834 7.10419539 4.85228055 8.7734375 4.78515625 C10.03607422 4.75131836 10.03607422 4.75131836 11.32421875 4.71679688 C12.12988281 4.68134766 12.93554688 4.64589844 13.765625 4.609375 C14.50925293 4.58319092 15.25288086 4.55700684 16.01904297 4.5300293 C18.30577576 4.23036034 18.30577576 4.23036034 19.8984375 1.09765625 C12.3084375 1.42765625 4.7184375 1.75765625 -3.1015625 2.09765625 C-3.1015625 2.42765625 -3.1015625 2.75765625 -3.1015625 3.09765625 C-5.7415625 3.42765625 -8.3815625 3.75765625 -11.1015625 4.09765625 C-7.41394456 0.24241932 -5.33576921 -0.0249335 0 0 Z " fill="#AAEB74" transform="translate(74.1015625,81.90234375)"/>
<path d="M0 0 C2.875 1 2.875 1 4.25 3.5625 C4.45625 4.366875 4.6625 5.17125 4.875 6 C1.66048731 7.60725635 -1.56112536 7.05748185 -5.125 7 C-5.785 5.68 -6.445 4.36 -7.125 3 C-4.62365487 0.59486045 -3.5356541 0 0 0 Z " fill="#252525" transform="translate(51.125,147)"/>
<path d="M0 0 C0.66 0.33 1.32 0.66 2 1 C1.525625 1.350625 1.05125 1.70125 0.5625 2.0625 C-3.1741003 6.69588437 -2.29586247 15.18949415 -2.5625 20.9375 C-2.60568359 21.81212891 -2.64886719 22.68675781 -2.69335938 23.58789062 C-2.79846901 25.72511995 -2.89963985 27.86254238 -3 30 C-5.75712273 25.8643159 -5.33083126 22.54528356 -5.3125 17.6875 C-5.32861328 16.84509766 -5.34472656 16.00269531 -5.36132812 15.13476562 C-5.36534706 9.99454165 -4.83868696 6.4548737 -2 2 C-1.34 1.34 -0.68 0.68 0 0 Z " fill="#9AE752" transform="translate(286,86)"/>
<path d="M0 0 C1.65 0.33 3.3 0.66 5 1 C5.25 3.3125 5.25 3.3125 5 6 C2.75048621 8.50907308 1.34749528 8.95656309 -2 9.375 C-5.30371768 8.96203529 -6.70324221 8.38509462 -9 6 C-9 5.01 -9 4.02 -9 3 C-8.195625 3.495 -8.195625 3.495 -7.375 4 C-4.4608939 5.22699204 -2.13132292 5.14233286 1 5 C1.33 3.68 1.66 2.36 2 1 C1.34 0.67 0.68 0.34 0 0 Z " fill="#313131" transform="translate(335,154)"/>
<path d="M0 0 C1.3921875 0.4021875 1.3921875 0.4021875 2.8125 0.8125 C4.05796405 3.30342811 3.5892578 4.22330733 2.8125 6.8125 C0.1725 6.8125 -2.4675 6.8125 -5.1875 6.8125 C-5.8475 5.4925 -6.5075 4.1725 -7.1875 2.8125 C-4.61059935 0.33471091 -3.65291419 -0.21487731 0 0 Z " fill="#2F2F2F" transform="translate(108.1875,147.1875)"/>
<path d="M0 0 C0 0.99 0 1.98 0 3 C-1.32 3 -2.64 3 -4 3 C-4 7.29 -4 11.58 -4 16 C-4.99 16 -5.98 16 -7 16 C-7 11.05 -7 6.1 -7 1 C-2 0 -2 0 0 0 Z " fill="#2C2C2C" transform="translate(301,147)"/>
<path d="M0 0 C0.99 0 1.98 0 3 0 C3 5.94 3 11.88 3 18 C2.67 18 2.34 18 2 18 C2 14.37 2 10.74 2 7 C1.34 7 0.68 7 0 7 C0 10.63 0 14.26 0 18 C-0.66 18 -1.32 18 -2 18 C-2 13.38 -2 8.76 -2 4 C-1.01 3.67 -0.02 3.34 1 3 C1.33 2.34 1.66 1.68 2 1 C1.34 0.67 0.68 0.34 0 0 Z " fill="#94EA44" transform="translate(319,99)"/>
<path d="M0 0 C0.99 0 1.98 0 3 0 C2.37968409 6.57534861 0.85102717 12.66692592 -1 19 C-2.32 19 -3.64 19 -5 19 C-5 18.34 -5 17.68 -5 17 C-4.34 16.67 -3.68 16.34 -3 16 C-2.36139231 13.30202898 -1.83174758 10.66633377 -1.375 7.9375 C-1.17390625 6.79958008 -1.17390625 6.79958008 -0.96875 5.63867188 C-0.63799878 3.76047742 -0.31799266 1.88039662 0 0 Z " fill="#0D0D0D" transform="translate(31,142)"/>
<path d="M0 0 C0.66 0.33 1.32 0.66 2 1 C1.67 1.99 1.34 2.98 1 4 C0.90823338 5.42220944 0.86933522 6.84827218 0.8671875 8.2734375 C0.86525391 9.5109375 0.86525391 9.5109375 0.86328125 10.7734375 C0.86714844 11.63195312 0.87101562 12.49046875 0.875 13.375 C0.87113281 14.22578125 0.86726563 15.0765625 0.86328125 15.953125 C0.86973464 20.09619909 0.95275965 23.96064436 2 28 C0.0234375 26.625 0.0234375 26.625 -2 24 C-2.56524497 20.66033162 -2.46668521 17.37787621 -2.375 14 C-2.37371094 13.09765625 -2.37242187 12.1953125 -2.37109375 11.265625 C-2.31304993 6.90588899 -2.202878 3.84981771 0 0 Z " fill="#E4FDC4" transform="translate(281,90)"/>
<path d="M0 0 C0.99 0.66 1.98 1.32 3 2 C3.42135239 5.23036829 3.38367654 7.25785255 1.87768555 10.17089844 C0 12 0 12 -2.91088867 12.45410156 C-4.0682251 12.4331543 -5.22556152 12.41220703 -6.41796875 12.390625 C-7.67158203 12.37773438 -8.92519531 12.36484375 -10.21679688 12.3515625 C-11.52712891 12.31804687 -12.83746094 12.28453125 -14.1875 12.25 C-15.5227601 12.22993307 -16.85804883 12.21168262 -18.19335938 12.1953125 C-21.46296146 12.14809803 -24.73112192 12.08225184 -28 12 C-28 11.67 -28 11.34 -28 11 C-19.09 11 -10.18 11 -1 11 C-0.29670732 5.51125939 -0.29670732 5.51125939 0 0 Z " fill="#ECFED5" transform="translate(40,108)"/>
<path d="M0 0 C4.39335702 3.79966013 6.60746602 7.33039735 8 13 C8.1875 16.5 8.1875 16.5 8 19 C7.34 19 6.68 19 6 19 C4.05090979 15.43478915 3.31065953 12.08233126 2.5625 8.12109375 C2.04883659 5.72346278 2.04883659 5.72346278 0 3 C0 2.01 0 1.02 0 0 Z " fill="#8FEE37" transform="translate(245,89)"/>
<path d="M0 0 C1.8125 1.5 1.8125 1.5 3 3 C2.67 3.99 2.34 4.98 2 6 C1.34 5.34 0.68 4.68 0 4 C-2.54190002 3.7499227 -2.54190002 3.7499227 -5 4 C-6.41577477 5.18424326 -6.41577477 5.18424326 -6.0625 8.5625 C-6.041875 9.696875 -6.02125 10.83125 -6 12 C-6.99 12 -7.98 12 -9 12 C-9.48539326 4.71910112 -9.48539326 4.71910112 -7.3125 1.5 C-4.54877578 -0.29268598 -3.23177469 -0.58006212 0 0 Z " fill="#1C1C1C" transform="translate(255,147)"/>
<path d="M0 0 C0.66 0.33 1.32 0.66 2 1 C0.625 3.5 0.625 3.5 -1 6 C-1.66 6 -2.32 6 -3 6 C-3 11.94 -3 17.88 -3 24 C-3.66 23.67 -4.32 23.34 -5 23 C-5.10871967 20.45716766 -5.18762401 17.91904912 -5.25 15.375 C-5.28351563 14.66214844 -5.31703125 13.94929688 -5.3515625 13.21484375 C-5.4474264 7.9902614 -4.37790974 5.19015522 -1 1 C-0.67 0.67 -0.34 0.34 0 0 Z " fill="#E0FCC1" transform="translate(292,89)"/>
<path d="M0 0 C10.89 0 21.78 0 33 0 C33 0.33 33 0.66 33 1 C32.16863525 1.0093457 31.33727051 1.01869141 30.48071289 1.02832031 C27.35473157 1.07270059 24.22968104 1.13447604 21.10424805 1.20751953 C19.10293229 1.24915877 17.1012406 1.2712655 15.09960938 1.29296875 C7.55534356 1.48300063 1.56820985 2.1270403 -5 6 C-5 5.01 -5 4.02 -5 3 C-3.35 2.67 -1.7 2.34 0 2 C0 1.34 0 0.68 0 0 Z " fill="#EEFED7" transform="translate(290,81)"/>
<path d="M0 0 C0.66 0.33 1.32 0.66 2 1 C1.34 3.31 0.68 5.62 0 8 C0.99 8 1.98 8 3 8 C3.33 8.66 3.66 9.32 4 10 C10.93 10.33 17.86 10.66 25 11 C25 11.33 25 11.66 25 12 C21.22931168 12.086985 17.45888068 12.14038579 13.6875 12.1875 C12.61564453 12.21263672 11.54378906 12.23777344 10.43945312 12.26367188 C9.41142578 12.27333984 8.38339844 12.28300781 7.32421875 12.29296875 C6.37635498 12.3086792 5.42849121 12.32438965 4.4519043 12.34057617 C2 12 2 12 0.18286133 10.7043457 C-1.74711598 7.92350533 -1.23794357 5.27172412 -1 2 C-0.67 1.34 -0.34 0.68 0 0 Z " fill="#E9FECA" transform="translate(17,89)"/>
<path d="M0 0 C0.99 0 1.98 0 3 0 C3 1.65 3 3.3 3 5 C-1.29161047 5.05783842 -5.58312145 5.0935412 -9.875 5.125 C-11.09832031 5.14175781 -12.32164063 5.15851563 -13.58203125 5.17578125 C-15.33193359 5.18544922 -15.33193359 5.18544922 -17.1171875 5.1953125 C-18.19597168 5.20578613 -19.27475586 5.21625977 -20.38623047 5.22705078 C-23 5 -23 5 -25 3 C-16.75 3.33 -8.5 3.66 0 4 C0 2.68 0 1.36 0 0 Z " fill="#9BE35B" transform="translate(92,121)"/>
<path d="M0 0 C1.89213369 2.38573379 3.02391783 4.07175348 4 7 C4.99 7.66 5.98 8.32 7 9 C2.25 8.125 2.25 8.125 0 7 C0.33 8.98 0.66 10.96 1 13 C-1.72107452 10.6499811 -2.96702492 8.44325025 -4 5 C-3.67 4.01 -3.34 3.02 -3 2 C-2.67 3.32 -2.34 4.64 -2 6 C-1.34 6 -0.68 6 0 6 C0 4.02 0 2.04 0 0 Z " fill="#A0E95D" transform="translate(257,112)"/>
<path d="M0 0 C0.33 0 0.66 0 1 0 C1 1.65 1 3.3 1 5 C1.66 5 2.32 5 3 5 C3.33 5.66 3.66 6.32 4 7 C6.64 7 9.28 7 12 7 C11.34 8.32 10.68 9.64 10 11 C7.25 11.3125 7.25 11.3125 4 11 C0.94338095 8.26513033 0.06025422 6.79836847 -0.25 2.6875 C-0.1675 1.800625 -0.085 0.91375 0 0 Z " fill="#2F2F2F" transform="translate(350,152)"/>
<path d="M0 0 C0.66 0.33 1.32 0.66 2 1 C2 2.65 2 4.3 2 6 C-1.63 6.33 -5.26 6.66 -9 7 C-9.33 5.35 -9.66 3.7 -10 2 C-9.34 1.67 -8.68 1.34 -8 1 C-8 1.99 -8 2.98 -8 4 C-5.36 4 -2.72 4 0 4 C0 2.68 0 1.36 0 0 Z " fill="#070707" transform="translate(111,150)"/>
<path d="M0 0 C1.37432457 3.81756824 0.67975039 7.07255329 0 11 C0.66 11.33 1.32 11.66 2 12 C2 13.98 2 15.96 2 18 C-0.45767562 15.64917984 -1.90939081 14.22849204 -2.16796875 10.72265625 C-2.17441406 9.84480469 -2.18085938 8.96695313 -2.1875 8.0625 C-2.20167969 7.18722656 -2.21585938 6.31195313 -2.23046875 5.41015625 C-2 3 -2 3 0 0 Z " fill="#A3E962" transform="translate(11,86)"/>
<path d="M0 0 C0.99 0 1.98 0 3 0 C3.268125 0.639375 3.53625 1.27875 3.8125 1.9375 C4.88667752 4.33131686 4.88667752 4.33131686 8 5 C9.33525717 5.07973476 10.67412083 5.10771338 12.01171875 5.09765625 C12.76904297 5.09443359 13.52636719 5.09121094 14.30664062 5.08789062 C15.09232422 5.07951172 15.87800781 5.07113281 16.6875 5.0625 C17.88342773 5.05573242 17.88342773 5.05573242 19.10351562 5.04882812 C21.06904257 5.0370585 23.03453085 5.01912348 25 5 C24.67 5.66 24.34 6.32 24 7 C21.12340174 7.1356886 18.25326537 7.23440753 15.375 7.3125 C14.56675781 7.35439453 13.75851562 7.39628906 12.92578125 7.43945312 C8.63182221 7.52672872 5.84062839 7.34813157 2.4140625 4.60546875 C0 2 0 2 0 0 Z " fill="#EFFED7" transform="translate(289,113)"/>
<path d="M0 0 C-3 2 -3 2 -5 3 C-5.33 3.99 -5.66 4.98 -6 6 C-4.35 6.33 -2.7 6.66 -1 7 C-1 7.66 -1 8.32 -1 9 C-3.375 9.125 -3.375 9.125 -6 9 C-8 7 -8 7 -8.125 3.875 C-8.08375 2.92625 -8.0425 1.9775 -8 1 C-5.29120665 -0.35439668 -2.99066732 -0.06501451 0 0 Z " fill="#191919" transform="translate(382,154)"/>
<path d="M0 0 C0.33 0.66 0.66 1.32 1 2 C2.37285156 1.87431641 2.37285156 1.87431641 3.7734375 1.74609375 C5.55621094 1.59333984 5.55621094 1.59333984 7.375 1.4375 C8.55835938 1.33308594 9.74171875 1.22867188 10.9609375 1.12109375 C14 1 14 1 16 2 C16 2.66 16 3.32 16 4 C11.05 4 6.1 4 1 4 C0.67 2.68 0.34 1.36 0 0 Z " fill="#92EA44" transform="translate(164,83)"/>
<path d="M0 0 C0.66 1.32 1.32 2.64 2 4 C4.64 3.67 7.28 3.34 10 3 C9.34 4.32 8.68 5.64 8 7 C2.56193353 7.36253776 2.56193353 7.36253776 0.0625 5.75 C-1 4 -1 4 -0.6875 1.8125 C-0.460625 1.214375 -0.23375 0.61625 0 0 Z " fill="#2A2A2A" transform="translate(45,156)"/>
<path d="M0 0 C0.33 0 0.66 0 1 0 C1 3.3 1 6.6 1 10 C2.32 10 3.64 10 5 10 C5 10.99 5 11.98 5 13 C0.125 12.125 0.125 12.125 -1 11 C-1.09823937 9.33570949 -1.12973631 7.66718069 -1.125 6 C-1.12757813 5.0925 -1.13015625 4.185 -1.1328125 3.25 C-1 1 -1 1 0 0 Z " fill="#202020" transform="translate(192,150)"/>
<path d="M0 0 C6.36363636 -0.48951049 6.36363636 -0.48951049 9.4375 1.875 C11 4 11 4 11 6 C10.01 6 9.02 6 8 6 C7.34 5.01 6.68 4.02 6 3 C3.19438238 2.71943824 1.53421737 2.73289132 -1 4 C-0.67 2.68 -0.34 1.36 0 0 Z " fill="#191919" transform="translate(143,142)"/>
<path d="M0 0 C0.66 0 1.32 0 2 0 C2 1.98 2 3.96 2 6 C-1.08809695 7.76462683 -2.23312136 8 -6 8 C-5.67 7.01 -5.34 6.02 -5 5 C-4.01 5 -3.02 5 -2 5 C-2 4.01 -2 3.02 -2 2 C-1.34 2 -0.68 2 0 2 C0 1.34 0 0.68 0 0 Z " fill="#8DEF34" transform="translate(44,116)"/>
<path d="M0 0 C0.33 0.99 0.66 1.98 1 3 C3.06758629 3.95001288 3.06758629 3.95001288 5.5 4.5625 C7.96875 5.25390625 7.96875 5.25390625 10 6 C10.33 6.66 10.66 7.32 11 8 C6.3824571 8.32215416 3.66125071 7.92900057 0 5 C-0.875 2.875 -0.875 2.875 -1 1 C-0.67 0.67 -0.34 0.34 0 0 Z " fill="#191919" transform="translate(327,146)"/>
<path d="M0 0 C0.99 0.33 1.98 0.66 3 1 C2.01 3.31 1.02 5.62 0 8 C-0.99 8 -1.98 8 -3 8 C-2.25 2.25 -2.25 2.25 0 0 Z " fill="#8CF033" transform="translate(62,88)"/>
<path d="M0 0 C0.99 0 1.98 0 3 0 C1.80100302 3.0831351 0.52299523 6.06279492 -1 9 C-1.99 9 -2.98 9 -4 9 C-2.94124926 5.59687262 -1.99097846 2.98646769 0 0 Z " fill="#252525" transform="translate(234,142)"/>
<path d="M0 0 C0.33 0 0.66 0 1 0 C1 3.3 1 6.6 1 10 C1.99 10 2.98 10 4 10 C4 10.99 4 11.98 4 13 C2.35 12.67 0.7 12.34 -1 12 C-1.33 11.01 -1.66 10.02 -2 9 C-1.34 9 -0.68 9 0 9 C0 6.03 0 3.06 0 0 Z " fill="#3F3F3F" transform="translate(400,150)"/>
<path d="M0 0 C0.99 0 1.98 0 3 0 C4.32 2.97 5.64 5.94 7 9 C6.01 9.33 5.02 9.66 4 10 C3.32845067 8.71086513 2.66291141 7.41859796 2 6.125 C1.62875 5.40570313 1.2575 4.68640625 0.875 3.9453125 C0 2 0 2 0 0 Z " fill="#212121" transform="translate(221,142)"/>
<path d="M0 0 C0.33 0 0.66 0 1 0 C1 6.93 1 13.86 1 21 C0.01 21.33 -0.98 21.66 -2 22 C-1.84152588 21.42926758 -1.68305176 20.85853516 -1.51977539 20.27050781 C-1.00638657 18.02789812 -0.79834104 15.96682085 -0.68359375 13.671875 C-0.64169922 12.87265625 -0.59980469 12.0734375 -0.55664062 11.25 C-0.49766602 10.0125 -0.49766602 10.0125 -0.4375 8.75 C-0.39431641 7.90953125 -0.35113281 7.0690625 -0.30664062 6.203125 C-0.20091457 4.13559329 -0.09998705 2.06781719 0 0 Z " fill="#F0FEE0" transform="translate(324,98)"/>
<path d="M0 0 C1.98 0 3.96 0 6 0 C5.67 1.32 5.34 2.64 5 4 C3.02 4 1.04 4 -1 4 C-0.67 2.68 -0.34 1.36 0 0 Z " fill="#E9E9E9" transform="translate(377,156)"/>
<path d="M0 0 C3 2 3 2 3.6875 5.125 C3.8421875 6.548125 3.8421875 6.548125 4 8 C5.65 8 7.3 8 9 8 C9 8.33 9 8.66 9 9 C7.02 9.33 5.04 9.66 3 10 C0.64551835 7.44931155 0.01672076 6.28982642 -0.1875 2.75 C-0.125625 1.8425 -0.06375 0.935 0 0 Z " fill="#333333" transform="translate(165,152)"/>
<path d="M0 0 C0.99 0 1.98 0 3 0 C2.609375 6.0546875 2.609375 6.0546875 2 8 C0.02 8.99 0.02 8.99 -2 10 C-1.34 6.7 -0.68 3.4 0 0 Z " fill="#343434" transform="translate(31,142)"/>
<path d="M0 0 C1.65 0 3.3 0 5 0 C5.33 1.32 5.66 2.64 6 4 C3.69 4 1.38 4 -1 4 C-0.67 2.68 -0.34 1.36 0 0 Z " fill="#E6E6E6" transform="translate(354,150)"/>
<path d="M0 0 C1.65 0 3.3 0 5 0 C5.33 1.32 5.66 2.64 6 4 C3.69 4 1.38 4 -1 4 C-0.67 2.68 -0.34 1.36 0 0 Z " fill="#E6E6E6" transform="translate(104,150)"/>
<path d="M0 0 C1.65 0 3.3 0 5 0 C5.33 1.32 5.66 2.64 6 4 C3.69 4 1.38 4 -1 4 C-0.67 2.68 -0.34 1.36 0 0 Z " fill="#E7E7E7" transform="translate(47,150)"/>
<path d="M0 0 C1.46726798 3.81489674 0.43336419 6.29011622 -1 10 C-1.99 10 -2.98 10 -4 10 C-3.29445932 6.33118845 -1.72264494 3.29549466 0 0 Z " fill="#0B0B0B" transform="translate(19,152)"/>
<path d="M0 0 C2.375 -0.125 2.375 -0.125 5 0 C5.66 0.66 6.32 1.32 7 2 C6.67 2.99 6.34 3.98 6 5 C4.02 4.34 2.04 3.68 0 3 C0 2.01 0 1.02 0 0 Z " fill="#EBEBEB" transform="translate(417,150)"/>
<path d="M0 0 C1.32 0.33 2.64 0.66 4 1 C4 1.99 4 2.98 4 4 C4.66 4 5.32 4 6 4 C6 4.66 6 5.32 6 6 C4.35 6 2.7 6 1 6 C0.67 4.02 0.34 2.04 0 0 Z " fill="#8EEE35" transform="translate(285,115)"/>
<path d="M0 0 C1.32 0.33 2.64 0.66 4 1 C4 1.66 4 2.32 4 3 C4.66 3 5.32 3 6 3 C6 3.99 6 4.98 6 6 C4.35 5.67 2.7 5.34 1 5 C0.67 3.35 0.34 1.7 0 0 Z " fill="#8EEF33" transform="translate(41,104)"/>
<path d="M0 0 C5.5 -0.36666667 5.5 -0.36666667 7.875 1.375 C9 3 9 3 9 5 C6.07471973 4.37315423 3.58774327 3.51695295 1 2 C0.67 1.34 0.34 0.68 0 0 Z " fill="#414141" transform="translate(417,147)"/>
<path d="M0 0 C2.875 0.1875 2.875 0.1875 6 1 C7.375 3.5625 7.375 3.5625 8 6 C7.01 6.33 6.02 6.66 5 7 C4.67 6.01 4.34 5.02 4 4 C3.01 3.34 2.02 2.68 1 2 C0.67 1.34 0.34 0.68 0 0 Z " fill="#393939" transform="translate(355,147)"/>
<path d="M0 0 C0.33 0.66 0.66 1.32 1 2 C1.66 2 2.32 2 3 2 C3 2.99 3 3.98 3 5 C2.34 5 1.68 5 1 5 C1.33 6.98 1.66 8.96 2 11 C0.4375 10 0.4375 10 -1 8 C-0.96726452 5.23385218 -0.49404328 2.73969453 0 0 Z " fill="#95ED45" transform="translate(284,110)"/>
<path d="M0 0 C0.66 0 1.32 0 2 0 C1.6875 1.875 1.6875 1.875 1 4 C-2 6 -2 6 -4.6875 5.625 C-5.450625 5.41875 -6.21375 5.2125 -7 5 C-7 4.67 -7 4.34 -7 4 C-6.030625 3.71125 -5.06125 3.4225 -4.0625 3.125 C-0.89335797 2.35785318 -0.89335797 2.35785318 0 0 Z " fill="#161616" transform="translate(176,157)"/>
<path d="M0 0 C0.33 0 0.66 0 1 0 C1 1.65 1 3.3 1 5 C-3.29 5 -7.58 5 -12 5 C-12 4.67 -12 4.34 -12 4 C-11.38511719 3.96261719 -10.77023437 3.92523438 -10.13671875 3.88671875 C-9.32847656 3.82097656 -8.52023437 3.75523438 -7.6875 3.6875 C-6.88699219 3.62949219 -6.08648437 3.57148437 -5.26171875 3.51171875 C-2.62476049 2.91510125 -1.74451753 2.00216935 0 0 Z " fill="#EFFEDE" transform="translate(270,122)"/>
<path d="M0 0 C2.64 0.33 5.28 0.66 8 1 C8.33 1.99 8.66 2.98 9 4 C3.375 4.25 3.375 4.25 0 2 C0 1.34 0 0.68 0 0 Z " fill="#404040" transform="translate(141,159)"/>
<path d="M0 0 C0.556875 0.28875 1.11375 0.5775 1.6875 0.875 C4.08494645 2.0413253 6.51596939 3.0339881 9 4 C9 4.33 9 4.66 9 5 C5.625 5.125 5.625 5.125 2 5 C1.34 4.34 0.68 3.68 0 3 C0 2.01 0 1.02 0 0 Z " fill="#171717" transform="translate(326,157)"/>
<path d="M0 0 C0.66 0.33 1.32 0.66 2 1 C2 2.32 2 3.64 2 5 C-0.95664519 6.4783226 -3.74229737 6.06032783 -7 6 C-5 5 -3 4 -1 3 C-0.67 2.01 -0.34 1.02 0 0 Z " fill="#0C0C0C" transform="translate(152,156)"/>
<path d="M0 0 C0 2.64 0 5.28 0 8 C-0.99 8 -1.98 8 -3 8 C-3 5.69 -3 3.38 -3 1 C-1 0 -1 0 0 0 Z " fill="#313131" transform="translate(259,151)"/>
<path d="M0 0 C2.625 0.375 2.625 0.375 5 1 C4.38125 1.04125 3.7625 1.0825 3.125 1.125 C2.42375 1.41375 1.7225 1.7025 1 2 C-0.3045656 4.99615946 -0.3045656 4.99615946 -1 8 C-1.33 8 -1.66 8 -2 8 C-2.125 5.125 -2.125 5.125 -2 2 C-1.34 1.34 -0.68 0.68 0 0 Z " fill="#1E1E1E" transform="translate(168,148)"/>
<path d="M0 0 C0.8531488 2.38881665 1.12563748 3.62308755 0.3125 6.0625 C-1.18464888 8.27257692 -2.79042813 9.52695209 -5 11 C-5.66 10.67 -6.32 10.34 -7 10 C-6.57847656 9.52949219 -6.15695312 9.05898437 -5.72265625 8.57421875 C-5.17480469 7.95160156 -4.62695312 7.32898438 -4.0625 6.6875 C-3.51722656 6.07261719 -2.97195313 5.45773438 -2.41015625 4.82421875 C-0.79918441 2.94758042 -0.79918441 2.94758042 0 0 Z " fill="#E1FCC7" transform="translate(429,113)"/>
<path d="M0 0 C2.33944736 0.28730055 4.6739143 0.61936779 7 1 C4.37352812 2.75098126 1.71224618 4.38731308 -1 6 C-1.042721 4.33388095 -1.04063832 2.66617115 -1 1 C-0.67 0.67 -0.34 0.34 0 0 Z " fill="#93EA45" transform="translate(290,86)"/>
<path d="M0 0 C1.65 0 3.3 0 5 0 C5.33 0.99 5.66 1.98 6 3 C4.02 3.33 2.04 3.66 0 4 C0 2.68 0 1.36 0 0 Z " fill="#EFEFEF" transform="translate(377,150)"/>
<path d="M0 0 C0.6875 2.0625 0.6875 2.0625 1 4 C0.01 4.33 -0.98 4.66 -2 5 C-2.33 4.01 -2.66 3.02 -3 2 C-3.99 1.34 -4.98 0.68 -6 0 C-3 -1 -3 -1 0 0 Z " fill="#373737" transform="translate(55,149)"/>
<path d="M0 0 C0 2.64 0 5.28 0 8 C-0.66 8 -1.32 8 -2 8 C-2.66 6.35 -3.32 4.7 -4 3 C-1.125 0 -1.125 0 0 0 Z " fill="#91EC3D" transform="translate(257,110)"/>
<path d="M0 0 C-0.33 0.66 -0.66 1.32 -1 2 C-3.64860427 2.59355614 -6.29197322 2.74209269 -9 3 C-5.83583464 -0.30799106 -4.50236011 -1.35070803 0 0 Z " fill="#A7EC66" transform="translate(72,83)"/>
</svg>
