<?xml version="1.0" standalone="no"?>
<svg xmlns="http://www.w3.org/2000/svg" width="500" height="500"><defs><clipPath id="clip-path-dot-color"><path d="M 19 159v 14h 14v -7a 7 7, 0, 0, 0, -7 -7" transform="rotate(-90,26,166)"/><path d="M 19 173v 14h 14v -7a 7 7, 0, 0, 0, -7 -7" transform="rotate(180,26,180)"/><path d="M 19 201v 14h 14v -7a 7 7, 0, 0, 0, -7 -7" transform="rotate(-90,26,208)"/><rect x="19" y="215" width="14" height="14" transform="rotate(0,26,222)"/><path d="M 19 229v 14h 7a 7 7, 0, 0, 0, 0 -14" transform="rotate(90,26,236)"/><path d="M 19 327v 14h 7a 7 7, 0, 0, 0, 0 -14" transform="rotate(180,26,334)"/><path d="M 33 131v 14h 7a 7 7, 0, 0, 0, 0 -14" transform="rotate(-90,40,138)"/><rect x="33" y="145" width="14" height="14" transform="rotate(0,40,152)"/><rect x="33" y="159" width="14" height="14" transform="rotate(0,40,166)"/><rect x="33" y="173" width="14" height="14" transform="rotate(0,40,180)"/><rect x="33" y="187" width="14" height="14" transform="rotate(0,40,194)"/><rect x="33" y="201" width="14" height="14" transform="rotate(0,40,208)"/><rect x="33" y="215" width="14" height="14" transform="rotate(0,40,222)"/><path d="M 33 243v 14h 7a 7 7, 0, 0, 0, 0 -14" transform="rotate(-90,40,250)"/><path d="M 33 257v 14h 14v -7a 7 7, 0, 0, 0, -7 -7" transform="rotate(180,40,264)"/><circle cx="40" cy="292" r="7" transform="rotate(0,40,292)"/><path d="M 33 313v 14h 7a 7 7, 0, 0, 0, 0 -14" transform="rotate(-90,40,320)"/><rect x="33" y="327" width="14" height="14" transform="rotate(0,40,334)"/><circle cx="40" cy="362" r="7" transform="rotate(0,40,362)"/><rect x="47" y="145" width="14" height="14" transform="rotate(0,54,152)"/><rect x="47" y="159" width="14" height="14" transform="rotate(0,54,166)"/><rect x="47" y="173" width="14" height="14" transform="rotate(0,54,180)"/><path d="M 47 187v 14h 14v -7a 7 7, 0, 0, 0, -7 -7" transform="rotate(90,54,194)"/><rect x="47" y="215" width="14" height="14" transform="rotate(0,54,222)"/><path d="M 47 257v 14h 14v -7a 7 7, 0, 0, 0, -7 -7" transform="rotate(0,54,264)"/><path d="M 47 271v 14h 7a 7 7, 0, 0, 0, 0 -14" transform="rotate(90,54,278)"/><circle cx="54" cy="306" r="7" transform="rotate(0,54,306)"/><path d="M 47 327v 14h 14v -7a 7 7, 0, 0, 0, -7 -7" transform="rotate(0,54,334)"/><path d="M 47 341v 14h 14v -7a 7 7, 0, 0, 0, -7 -7" transform="rotate(180,54,348)"/><path d="M 61 131v 14h 14v -7a 7 7, 0, 0, 0, -7 -7" transform="rotate(-90,68,138)"/><path d="M 61 145v 14h 14v -7a 7 7, 0, 0, 0, -7 -7" transform="rotate(90,68,152)"/><path d="M 61 201v 14h 7a 7 7, 0, 0, 0, 0 -14" transform="rotate(-90,68,208)"/><rect x="61" y="215" width="14" height="14" transform="rotate(0,68,222)"/><path d="M 61 229v 14h 14v -7a 7 7, 0, 0, 0, -7 -7" transform="rotate(180,68,236)"/><circle cx="68" cy="292" r="7" transform="rotate(0,68,292)"/><rect x="61" y="341" width="14" height="14" transform="rotate(0,68,348)"/><path d="M 75 131v 14h 7a 7 7, 0, 0, 0, 0 -14" transform="rotate(0,82,138)"/><rect x="75" y="229" width="14" height="14" transform="rotate(0,82,236)"/><rect x="75" y="243" width="14" height="14" transform="rotate(0,82,250)"/><rect x="75" y="257" width="14" height="14" transform="rotate(0,82,264)"/><path d="M 75 271v 14h 14v -7a 7 7, 0, 0, 0, -7 -7" transform="rotate(180,82,278)"/><path d="M 75 299v 14h 14v -7a 7 7, 0, 0, 0, -7 -7" transform="rotate(-90,82,306)"/><path d="M 75 313v 14h 14v -7a 7 7, 0, 0, 0, -7 -7" transform="rotate(180,82,320)"/><rect x="75" y="341" width="14" height="14" transform="rotate(0,82,348)"/><path d="M 75 355v 14h 7a 7 7, 0, 0, 0, 0 -14" transform="rotate(90,82,362)"/><path d="M 89 145v 14h 7a 7 7, 0, 0, 0, 0 -14" transform="rotate(-90,96,152)"/><rect x="89" y="159" width="14" height="14" transform="rotate(0,96,166)"/><rect x="89" y="173" width="14" height="14" transform="rotate(0,96,180)"/><rect x="89" y="187" width="14" height="14" transform="rotate(0,96,194)"/><path d="M 89 201v 14h 7a 7 7, 0, 0, 0, 0 -14" transform="rotate(90,96,208)"/><path d="M 89 229v 14h 14v -7a 7 7, 0, 0, 0, -7 -7" transform="rotate(0,96,236)"/><rect x="89" y="243" width="14" height="14" transform="rotate(0,96,250)"/><rect x="89" y="271" width="14" height="14" transform="rotate(0,96,278)"/><rect x="89" y="299" width="14" height="14" transform="rotate(0,96,306)"/><path d="M 89 313v 14h 14v -7a 7 7, 0, 0, 0, -7 -7" transform="rotate(90,96,320)"/><path d="M 89 341v 14h 7a 7 7, 0, 0, 0, 0 -14" transform="rotate(0,96,348)"/><path d="M 103 131v 14h 7a 7 7, 0, 0, 0, 0 -14" transform="rotate(180,110,138)"/><rect x="103" y="159" width="14" height="14" transform="rotate(0,110,166)"/><path d="M 103 187v 14h 7a 7 7, 0, 0, 0, 0 -14" transform="rotate(0,110,194)"/><path d="M 103 215v 14h 7a 7 7, 0, 0, 0, 0 -14" transform="rotate(180,110,222)"/><path d="M 103 243v 14h 7a 7 7, 0, 0, 0, 0 -14" transform="rotate(0,110,250)"/><path d="M 103 271v 14h 7a 7 7, 0, 0, 0, 0 -14" transform="rotate(0,110,278)"/><rect x="103" y="299" width="14" height="14" transform="rotate(0,110,306)"/><path d="M 103 327v 14h 7a 7 7, 0, 0, 0, 0 -14" transform="rotate(180,110,334)"/><path d="M 103 355v 14h 7a 7 7, 0, 0, 0, 0 -14" transform="rotate(180,110,362)"/><rect x="117" y="131" width="14" height="14" transform="rotate(0,124,138)"/><rect x="117" y="159" width="14" height="14" transform="rotate(0,124,166)"/><rect x="117" y="215" width="14" height="14" transform="rotate(0,124,222)"/><path d="M 117 229v 14h 7a 7 7, 0, 0, 0, 0 -14" transform="rotate(90,124,236)"/><path d="M 117 285v 14h 14v -7a 7 7, 0, 0, 0, -7 -7" transform="rotate(-90,124,292)"/><path d="M 117 299v 14h 14v -7a 7 7, 0, 0, 0, -7 -7" transform="rotate(90,124,306)"/><rect x="117" y="327" width="14" height="14" transform="rotate(0,124,334)"/><rect x="117" y="355" width="14" height="14" transform="rotate(0,124,362)"/><circle cx="138" cy="40" r="7" transform="rotate(0,138,40)"/><path d="M 131 61v 14h 14v -7a 7 7, 0, 0, 0, -7 -7" transform="rotate(-90,138,68)"/><rect x="131" y="75" width="14" height="14" transform="rotate(0,138,82)"/><rect x="131" y="89" width="14" height="14" transform="rotate(0,138,96)"/><path d="M 131 103v 14h 7a 7 7, 0, 0, 0, 0 -14" transform="rotate(90,138,110)"/><rect x="131" y="131" width="14" height="14" transform="rotate(0,138,138)"/><rect x="131" y="159" width="14" height="14" transform="rotate(0,138,166)"/><path d="M 131 173v 14h 7a 7 7, 0, 0, 0, 0 -14" transform="rotate(90,138,180)"/><path d="M 131 201v 14h 7a 7 7, 0, 0, 0, 0 -14" transform="rotate(-90,138,208)"/><rect x="131" y="215" width="14" height="14" transform="rotate(0,138,222)"/><path d="M 131 243v 14h 14v -7a 7 7, 0, 0, 0, -7 -7" transform="rotate(-90,138,250)"/><path d="M 131 257v 14h 7a 7 7, 0, 0, 0, 0 -14" transform="rotate(90,138,264)"/><rect x="131" y="285" width="14" height="14" transform="rotate(0,138,292)"/><path d="M 131 327v 14h 7a 7 7, 0, 0, 0, 0 -14" transform="rotate(0,138,334)"/><path d="M 131 355v 14h 14v -7a 7 7, 0, 0, 0, -7 -7" transform="rotate(0,138,362)"/><rect x="131" y="369" width="14" height="14" transform="rotate(0,138,376)"/><path d="M 131 383v 14h 7a 7 7, 0, 0, 0, 0 -14" transform="rotate(90,138,390)"/><path d="M 131 411v 14h 14v -7a 7 7, 0, 0, 0, -7 -7" transform="rotate(-90,138,418)"/><path d="M 131 425v 14h 14v -7a 7 7, 0, 0, 0, -7 -7" transform="rotate(180,138,432)"/><circle cx="138" cy="460" r="7" transform="rotate(0,138,460)"/><path d="M 145 19v 14h 7a 7 7, 0, 0, 0, 0 -14" transform="rotate(180,152,26)"/><path d="M 145 47v 14h 14v -7a 7 7, 0, 0, 0, -7 -7" transform="rotate(-90,152,54)"/><path d="M 145 61v 14h 14v -7a 7 7, 0, 0, 0, -7 -7" transform="rotate(90,152,68)"/><path d="M 145 117v 14h 14v -7a 7 7, 0, 0, 0, -7 -7" transform="rotate(-90,152,124)"/><rect x="145" y="131" width="14" height="14" transform="rotate(0,152,138)"/><rect x="145" y="145" width="14" height="14" transform="rotate(0,152,152)"/><rect x="145" y="159" width="14" height="14" transform="rotate(0,152,166)"/><path d="M 145 215v 14h 7a 7 7, 0, 0, 0, 0 -14" transform="rotate(0,152,222)"/><rect x="145" y="243" width="14" height="14" transform="rotate(0,152,250)"/><path d="M 145 271v 14h 14v -7a 7 7, 0, 0, 0, -7 -7" transform="rotate(-90,152,278)"/><rect x="145" y="285" width="14" height="14" transform="rotate(0,152,292)"/><path d="M 145 299v 14h 7a 7 7, 0, 0, 0, 0 -14" transform="rotate(90,152,306)"/><path d="M 145 341v 14h 7a 7 7, 0, 0, 0, 0 -14" transform="rotate(180,152,348)"/><rect x="145" y="369" width="14" height="14" transform="rotate(0,152,376)"/><path d="M 145 397v 14h 7a 7 7, 0, 0, 0, 0 -14" transform="rotate(-90,152,404)"/><rect x="145" y="411" width="14" height="14" transform="rotate(0,152,418)"/><rect x="145" y="425" width="14" height="14" transform="rotate(0,152,432)"/><path d="M 145 439v 14h 14v -7a 7 7, 0, 0, 0, -7 -7" transform="rotate(180,152,446)"/><rect x="159" y="19" width="14" height="14" transform="rotate(0,166,26)"/><rect x="159" y="33" width="14" height="14" transform="rotate(0,166,40)"/><path d="M 159 47v 14h 14v -7a 7 7, 0, 0, 0, -7 -7" transform="rotate(90,166,54)"/><path d="M 159 75v 14h 7a 7 7, 0, 0, 0, 0 -14" transform="rotate(180,166,82)"/><path d="M 159 103v 14h 7a 7 7, 0, 0, 0, 0 -14" transform="rotate(-90,166,110)"/><rect x="159" y="117" width="14" height="14" transform="rotate(0,166,124)"/><rect x="159" y="145" width="14" height="14" transform="rotate(0,166,152)"/><rect x="159" y="159" width="14" height="14" transform="rotate(0,166,166)"/><path d="M 159 187v 14h 7a 7 7, 0, 0, 0, 0 -14" transform="rotate(180,166,194)"/><path d="M 159 229v 14h 14v -7a 7 7, 0, 0, 0, -7 -7" transform="rotate(-90,166,236)"/><rect x="159" y="243" width="14" height="14" transform="rotate(0,166,250)"/><rect x="159" y="257" width="14" height="14" transform="rotate(0,166,264)"/><path d="M 159 271v 14h 14v -7a 7 7, 0, 0, 0, -7 -7" transform="rotate(90,166,278)"/><circle cx="166" cy="320" r="7" transform="rotate(0,166,320)"/><rect x="159" y="341" width="14" height="14" transform="rotate(0,166,348)"/><path d="M 159 369v 14h 7a 7 7, 0, 0, 0, 0 -14" transform="rotate(0,166,376)"/><path d="M 159 411v 14h 14v -7a 7 7, 0, 0, 0, -7 -7" transform="rotate(0,166,418)"/><rect x="159" y="425" width="14" height="14" transform="rotate(0,166,432)"/><rect x="159" y="439" width="14" height="14" transform="rotate(0,166,446)"/><circle cx="166" cy="474" r="7" transform="rotate(0,166,474)"/><path d="M 173 19v 14h 14v -7a 7 7, 0, 0, 0, -7 -7" transform="rotate(0,180,26)"/><path d="M 173 33v 14h 14v -7a 7 7, 0, 0, 0, -7 -7" transform="rotate(90,180,40)"/><path d="M 173 61v 14h 7a 7 7, 0, 0, 0, 0 -14" transform="rotate(-90,180,68)"/><path d="M 173 75v 14h 14v -7a 7 7, 0, 0, 0, -7 -7" transform="rotate(90,180,82)"/><path d="M 173 117v 14h 14v -7a 7 7, 0, 0, 0, -7 -7" transform="rotate(0,180,124)"/><rect x="173" y="131" width="14" height="14" transform="rotate(0,180,138)"/><rect x="173" y="145" width="14" height="14" transform="rotate(0,180,152)"/><path d="M 173 159v 14h 14v -7a 7 7, 0, 0, 0, -7 -7" transform="rotate(90,180,166)"/><rect x="173" y="187" width="14" height="14" transform="rotate(0,180,194)"/><rect x="173" y="229" width="14" height="14" transform="rotate(0,180,236)"/><rect x="173" y="243" width="14" height="14" transform="rotate(0,180,250)"/><rect x="173" y="257" width="14" height="14" transform="rotate(0,180,264)"/><path d="M 173 299v 14h 7a 7 7, 0, 0, 0, 0 -14" transform="rotate(180,180,306)"/><path d="M 173 341v 14h 14v -7a 7 7, 0, 0, 0, -7 -7" transform="rotate(0,180,348)"/><path d="M 173 355v 14h 14v -7a 7 7, 0, 0, 0, -7 -7" transform="rotate(180,180,362)"/><path d="M 173 383v 14h 14v -7a 7 7, 0, 0, 0, -7 -7" transform="rotate(-90,180,390)"/><path d="M 173 397v 14h 14v -7a 7 7, 0, 0, 0, -7 -7" transform="rotate(180,180,404)"/><path d="M 173 439v 14h 7a 7 7, 0, 0, 0, 0 -14" transform="rotate(0,180,446)"/><path d="M 187 89v 14h 7a 7 7, 0, 0, 0, 0 -14" transform="rotate(-90,194,96)"/><path d="M 187 103v 14h 7a 7 7, 0, 0, 0, 0 -14" transform="rotate(90,194,110)"/><path d="M 187 173v 14h 14v -7a 7 7, 0, 0, 0, -7 -7" transform="rotate(-90,194,180)"/><path d="M 187 187v 14h 14v -7a 7 7, 0, 0, 0, -7 -7" transform="rotate(90,194,194)"/><rect x="187" y="229" width="14" height="14" transform="rotate(0,194,236)"/><rect x="187" y="243" width="14" height="14" transform="rotate(0,194,250)"/><rect x="187" y="257" width="14" height="14" transform="rotate(0,194,264)"/><path d="M 187 271v 14h 7a 7 7, 0, 0, 0, 0 -14" transform="rotate(90,194,278)"/><path d="M 187 299v 14h 14v -7a 7 7, 0, 0, 0, -7 -7" transform="rotate(0,194,306)"/><rect x="187" y="313" width="14" height="14" transform="rotate(0,194,320)"/><path d="M 187 327v 14h 14v -7a 7 7, 0, 0, 0, -7 -7" transform="rotate(180,194,334)"/><path d="M 187 355v 14h 7a 7 7, 0, 0, 0, 0 -14" transform="rotate(0,194,362)"/><path d="M 187 383v 14h 14v -7a 7 7, 0, 0, 0, -7 -7" transform="rotate(0,194,390)"/><rect x="187" y="397" width="14" height="14" transform="rotate(0,194,404)"/><circle cx="194" cy="474" r="7" transform="rotate(0,194,474)"/><path d="M 201 33v 14h 7a 7 7, 0, 0, 0, 0 -14" transform="rotate(180,208,40)"/><path d="M 201 61v 14h 7a 7 7, 0, 0, 0, 0 -14" transform="rotate(180,208,68)"/><path d="M 201 117v 14h 7a 7 7, 0, 0, 0, 0 -14" transform="rotate(180,208,124)"/><path d="M 201 159v 14h 14v -7a 7 7, 0, 0, 0, -7 -7" transform="rotate(-90,208,166)"/><rect x="201" y="173" width="14" height="14" transform="rotate(0,208,180)"/><path d="M 201 215v 14h 14v -7a 7 7, 0, 0, 0, -7 -7" transform="rotate(-90,208,222)"/><rect x="201" y="229" width="14" height="14" transform="rotate(0,208,236)"/><path d="M 201 257v 14h 7a 7 7, 0, 0, 0, 0 -14" transform="rotate(0,208,264)"/><circle cx="208" cy="292" r="7" transform="rotate(0,208,292)"/><path d="M 201 327v 14h 7a 7 7, 0, 0, 0, 0 -14" transform="rotate(0,208,334)"/><path d="M 201 369v 14h 7a 7 7, 0, 0, 0, 0 -14" transform="rotate(180,208,376)"/><rect x="201" y="397" width="14" height="14" transform="rotate(0,208,404)"/><path d="M 201 425v 14h 7a 7 7, 0, 0, 0, 0 -14" transform="rotate(180,208,432)"/><path d="M 215 19v 14h 7a 7 7, 0, 0, 0, 0 -14" transform="rotate(-90,222,26)"/><path d="M 215 33v 14h 14v -7a 7 7, 0, 0, 0, -7 -7" transform="rotate(90,222,40)"/><path d="M 215 61v 14h 7a 7 7, 0, 0, 0, 0 -14" transform="rotate(0,222,68)"/><path d="M 215 89v 14h 7a 7 7, 0, 0, 0, 0 -14" transform="rotate(-90,222,96)"/><rect x="215" y="103" width="14" height="14" transform="rotate(0,222,110)"/><rect x="215" y="117" width="14" height="14" transform="rotate(0,222,124)"/><rect x="215" y="159" width="14" height="14" transform="rotate(0,222,166)"/><rect x="215" y="173" width="14" height="14" transform="rotate(0,222,180)"/><rect x="215" y="187" width="14" height="14" transform="rotate(0,222,194)"/><rect x="215" y="201" width="14" height="14" transform="rotate(0,222,208)"/><rect x="215" y="215" width="14" height="14" transform="rotate(0,222,222)"/><path d="M 215 229v 14h 14v -7a 7 7, 0, 0, 0, -7 -7" transform="rotate(90,222,236)"/><circle cx="222" cy="320" r="7" transform="rotate(0,222,320)"/><path d="M 215 341v 14h 14v -7a 7 7, 0, 0, 0, -7 -7" transform="rotate(-90,222,348)"/><rect x="215" y="355" width="14" height="14" transform="rotate(0,222,362)"/><rect x="215" y="369" width="14" height="14" transform="rotate(0,222,376)"/><rect x="215" y="397" width="14" height="14" transform="rotate(0,222,404)"/><rect x="215" y="425" width="14" height="14" transform="rotate(0,222,432)"/><path d="M 215 439v 14h 14v -7a 7 7, 0, 0, 0, -7 -7" transform="rotate(180,222,446)"/><path d="M 229 47v 14h 7a 7 7, 0, 0, 0, 0 -14" transform="rotate(180,236,54)"/><path d="M 229 75v 14h 7a 7 7, 0, 0, 0, 0 -14" transform="rotate(180,236,82)"/><path d="M 229 117v 14h 7a 7 7, 0, 0, 0, 0 -14" transform="rotate(0,236,124)"/><path d="M 229 159v 14h 14v -7a 7 7, 0, 0, 0, -7 -7" transform="rotate(0,236,166)"/><rect x="229" y="173" width="14" height="14" transform="rotate(0,236,180)"/><rect x="229" y="187" width="14" height="14" transform="rotate(0,236,194)"/><rect x="229" y="201" width="14" height="14" transform="rotate(0,236,208)"/><path d="M 229 257v 14h 7a 7 7, 0, 0, 0, 0 -14" transform="rotate(180,236,264)"/><path d="M 229 285v 14h 7a 7 7, 0, 0, 0, 0 -14" transform="rotate(180,236,292)"/><path d="M 229 327v 14h 14v -7a 7 7, 0, 0, 0, -7 -7" transform="rotate(-90,236,334)"/><path d="M 229 341v 14h 14v -7a 7 7, 0, 0, 0, -7 -7" transform="rotate(90,236,348)"/><rect x="229" y="369" width="14" height="14" transform="rotate(0,236,376)"/><rect x="229" y="397" width="14" height="14" transform="rotate(0,236,404)"/><path d="M 229 425v 14h 14v -7a 7 7, 0, 0, 0, -7 -7" transform="rotate(0,236,432)"/><path d="M 229 439v 14h 14v -7a 7 7, 0, 0, 0, -7 -7" transform="rotate(90,236,446)"/><circle cx="236" cy="474" r="7" transform="rotate(0,236,474)"/><path d="M 243 33v 14h 7a 7 7, 0, 0, 0, 0 -14" transform="rotate(-90,250,40)"/><rect x="243" y="47" width="14" height="14" transform="rotate(0,250,54)"/><path d="M 243 75v 14h 14v -7a 7 7, 0, 0, 0, -7 -7" transform="rotate(0,250,82)"/><rect x="243" y="89" width="14" height="14" transform="rotate(0,250,96)"/><path d="M 243 103v 14h 7a 7 7, 0, 0, 0, 0 -14" transform="rotate(90,250,110)"/><path d="M 243 131v 14h 7a 7 7, 0, 0, 0, 0 -14" transform="rotate(180,250,138)"/><path d="M 243 173v 14h 7a 7 7, 0, 0, 0, 0 -14" transform="rotate(0,250,180)"/><rect x="243" y="201" width="14" height="14" transform="rotate(0,250,208)"/><path d="M 243 229v 14h 7a 7 7, 0, 0, 0, 0 -14" transform="rotate(-90,250,236)"/><rect x="243" y="243" width="14" height="14" transform="rotate(0,250,250)"/><rect x="243" y="257" width="14" height="14" transform="rotate(0,250,264)"/><rect x="243" y="271" width="14" height="14" transform="rotate(0,250,278)"/><rect x="243" y="285" width="14" height="14" transform="rotate(0,250,292)"/><path d="M 243 299v 14h 14v -7a 7 7, 0, 0, 0, -7 -7" transform="rotate(180,250,306)"/><path d="M 243 327v 14h 7a 7 7, 0, 0, 0, 0 -14" transform="rotate(0,250,334)"/><path d="M 243 355v 14h 7a 7 7, 0, 0, 0, 0 -14" transform="rotate(-90,250,362)"/><rect x="243" y="369" width="14" height="14" transform="rotate(0,250,376)"/><rect x="243" y="383" width="14" height="14" transform="rotate(0,250,390)"/><rect x="243" y="397" width="14" height="14" transform="rotate(0,250,404)"/><path d="M 243 411v 14h 14v -7a 7 7, 0, 0, 0, -7 -7" transform="rotate(180,250,418)"/><path d="M 257 47v 14h 7a 7 7, 0, 0, 0, 0 -14" transform="rotate(0,264,54)"/><path d="M 257 89v 14h 7a 7 7, 0, 0, 0, 0 -14" transform="rotate(0,264,96)"/><path d="M 257 131v 14h 14v -7a 7 7, 0, 0, 0, -7 -7" transform="rotate(0,264,138)"/><rect x="257" y="145" width="14" height="14" transform="rotate(0,264,152)"/><path d="M 257 159v 14h 14v -7a 7 7, 0, 0, 0, -7 -7" transform="rotate(180,264,166)"/><path d="M 257 187v 14h 7a 7 7, 0, 0, 0, 0 -14" transform="rotate(-90,264,194)"/><rect x="257" y="201" width="14" height="14" transform="rotate(0,264,208)"/><path d="M 257 215v 14h 7a 7 7, 0, 0, 0, 0 -14" transform="rotate(90,264,222)"/><path d="M 257 243v 14h 7a 7 7, 0, 0, 0, 0 -14" transform="rotate(0,264,250)"/><rect x="257" y="285" width="14" height="14" transform="rotate(0,264,292)"/><rect x="257" y="299" width="14" height="14" transform="rotate(0,264,306)"/><path d="M 257 313v 14h 7a 7 7, 0, 0, 0, 0 -14" transform="rotate(90,264,320)"/><path d="M 257 383v 14h 7a 7 7, 0, 0, 0, 0 -14" transform="rotate(0,264,390)"/><path d="M 257 411v 14h 7a 7 7, 0, 0, 0, 0 -14" transform="rotate(0,264,418)"/><path d="M 257 439v 14h 14v -7a 7 7, 0, 0, 0, -7 -7" transform="rotate(-90,264,446)"/><rect x="257" y="453" width="14" height="14" transform="rotate(0,264,460)"/><path d="M 257 467v 14h 14v -7a 7 7, 0, 0, 0, -7 -7" transform="rotate(180,264,474)"/><path d="M 271 61v 14h 14v -7a 7 7, 0, 0, 0, -7 -7" transform="rotate(-90,278,68)"/><path d="M 271 75v 14h 7a 7 7, 0, 0, 0, 0 -14" transform="rotate(90,278,82)"/><path d="M 271 103v 14h 7a 7 7, 0, 0, 0, 0 -14" transform="rotate(-90,278,110)"/><path d="M 271 117v 14h 14v -7a 7 7, 0, 0, 0, -7 -7" transform="rotate(180,278,124)"/><rect x="271" y="145" width="14" height="14" transform="rotate(0,278,152)"/><rect x="271" y="159" width="14" height="14" transform="rotate(0,278,166)"/><path d="M 271 173v 14h 7a 7 7, 0, 0, 0, 0 -14" transform="rotate(90,278,180)"/><path d="M 271 229v 14h 7a 7 7, 0, 0, 0, 0 -14" transform="rotate(180,278,236)"/><path d="M 271 271v 14h 7a 7 7, 0, 0, 0, 0 -14" transform="rotate(-90,278,278)"/><path d="M 271 285v 14h 14v -7a 7 7, 0, 0, 0, -7 -7" transform="rotate(90,278,292)"/><path d="M 271 341v 14h 7a 7 7, 0, 0, 0, 0 -14" transform="rotate(-90,278,348)"/><rect x="271" y="355" width="14" height="14" transform="rotate(0,278,362)"/><path d="M 271 369v 14h 7a 7 7, 0, 0, 0, 0 -14" transform="rotate(90,278,376)"/><path d="M 271 425v 14h 14v -7a 7 7, 0, 0, 0, -7 -7" transform="rotate(-90,278,432)"/><rect x="271" y="439" width="14" height="14" transform="rotate(0,278,446)"/><rect x="271" y="467" width="14" height="14" transform="rotate(0,278,474)"/><path d="M 285 19v 14h 14v -7a 7 7, 0, 0, 0, -7 -7" transform="rotate(-90,292,26)"/><rect x="285" y="33" width="14" height="14" transform="rotate(0,292,40)"/><rect x="285" y="47" width="14" height="14" transform="rotate(0,292,54)"/><path d="M 285 61v 14h 14v -7a 7 7, 0, 0, 0, -7 -7" transform="rotate(90,292,68)"/><rect x="285" y="117" width="14" height="14" transform="rotate(0,292,124)"/><rect x="285" y="131" width="14" height="14" transform="rotate(0,292,138)"/><rect x="285" y="145" width="14" height="14" transform="rotate(0,292,152)"/><path d="M 285 159v 14h 14v -7a 7 7, 0, 0, 0, -7 -7" transform="rotate(90,292,166)"/><circle cx="292" cy="208" r="7" transform="rotate(0,292,208)"/><rect x="285" y="229" width="14" height="14" transform="rotate(0,292,236)"/><path d="M 285 313v 14h 7a 7 7, 0, 0, 0, 0 -14" transform="rotate(180,292,320)"/><path d="M 285 383v 14h 7a 7 7, 0, 0, 0, 0 -14" transform="rotate(-90,292,390)"/><rect x="285" y="397" width="14" height="14" transform="rotate(0,292,404)"/><rect x="285" y="411" width="14" height="14" transform="rotate(0,292,418)"/><rect x="285" y="425" width="14" height="14" transform="rotate(0,292,432)"/><path d="M 285 439v 14h 14v -7a 7 7, 0, 0, 0, -7 -7" transform="rotate(90,292,446)"/><path d="M 285 467v 14h 7a 7 7, 0, 0, 0, 0 -14" transform="rotate(0,292,474)"/><rect x="299" y="19" width="14" height="14" transform="rotate(0,306,26)"/><rect x="299" y="33" width="14" height="14" transform="rotate(0,306,40)"/><path d="M 299 103v 14h 7a 7 7, 0, 0, 0, 0 -14" transform="rotate(-90,306,110)"/><path d="M 299 117v 14h 14v -7a 7 7, 0, 0, 0, -7 -7" transform="rotate(90,306,124)"/><path d="M 299 173v 14h 7a 7 7, 0, 0, 0, 0 -14" transform="rotate(180,306,180)"/><path d="M 299 229v 14h 14v -7a 7 7, 0, 0, 0, -7 -7" transform="rotate(0,306,236)"/><path d="M 299 243v 14h 14v -7a 7 7, 0, 0, 0, -7 -7" transform="rotate(180,306,250)"/><circle cx="306" cy="278" r="7" transform="rotate(0,306,278)"/><path d="M 299 299v 14h 14v -7a 7 7, 0, 0, 0, -7 -7" transform="rotate(-90,306,306)"/><path d="M 299 313v 14h 14v -7a 7 7, 0, 0, 0, -7 -7" transform="rotate(90,306,320)"/><path d="M 299 355v 14h 7a 7 7, 0, 0, 0, 0 -14" transform="rotate(180,306,362)"/><rect x="299" y="397" width="14" height="14" transform="rotate(0,306,404)"/><path d="M 299 425v 14h 7a 7 7, 0, 0, 0, 0 -14" transform="rotate(0,306,432)"/><circle cx="306" cy="460" r="7" transform="rotate(0,306,460)"/><rect x="313" y="19" width="14" height="14" transform="rotate(0,320,26)"/><path d="M 313 33v 14h 14v -7a 7 7, 0, 0, 0, -7 -7" transform="rotate(90,320,40)"/><path d="M 313 61v 14h 7a 7 7, 0, 0, 0, 0 -14" transform="rotate(180,320,68)"/><path d="M 313 131v 14h 7a 7 7, 0, 0, 0, 0 -14" transform="rotate(-90,320,138)"/><path d="M 313 145v 14h 7a 7 7, 0, 0, 0, 0 -14" transform="rotate(90,320,152)"/><path d="M 313 173v 14h 7a 7 7, 0, 0, 0, 0 -14" transform="rotate(0,320,180)"/><path d="M 313 243v 14h 14v -7a 7 7, 0, 0, 0, -7 -7" transform="rotate(0,320,250)"/><path d="M 313 257v 14h 7a 7 7, 0, 0, 0, 0 -14" transform="rotate(90,320,264)"/><path d="M 313 299v 14h 7a 7 7, 0, 0, 0, 0 -14" transform="rotate(0,320,306)"/><path d="M 313 327v 14h 7a 7 7, 0, 0, 0, 0 -14" transform="rotate(180,320,334)"/><path d="M 313 355v 14h 7a 7 7, 0, 0, 0, 0 -14" transform="rotate(0,320,362)"/><path d="M 313 397v 14h 14v -7a 7 7, 0, 0, 0, -7 -7" transform="rotate(0,320,404)"/><path d="M 313 411v 14h 7a 7 7, 0, 0, 0, 0 -14" transform="rotate(90,320,418)"/><circle cx="320" cy="446" r="7" transform="rotate(0,320,446)"/><rect x="327" y="19" width="14" height="14" transform="rotate(0,334,26)"/><rect x="327" y="61" width="14" height="14" transform="rotate(0,334,68)"/><path d="M 327 75v 14h 7a 7 7, 0, 0, 0, 0 -14" transform="rotate(90,334,82)"/><circle cx="334" cy="110" r="7" transform="rotate(0,334,110)"/><circle cx="334" cy="166" r="7" transform="rotate(0,334,166)"/><path d="M 327 201v 14h 7a 7 7, 0, 0, 0, 0 -14" transform="rotate(-90,334,208)"/><path d="M 327 215v 14h 14v -7a 7 7, 0, 0, 0, -7 -7" transform="rotate(180,334,222)"/><path d="M 327 313v 14h 7a 7 7, 0, 0, 0, 0 -14" transform="rotate(-90,334,320)"/><rect x="327" y="327" width="14" height="14" transform="rotate(0,334,334)"/><path d="M 327 341v 14h 7a 7 7, 0, 0, 0, 0 -14" transform="rotate(90,334,348)"/><path d="M 327 369v 14h 14v -7a 7 7, 0, 0, 0, -7 -7" transform="rotate(-90,334,376)"/><path d="M 327 383v 14h 7a 7 7, 0, 0, 0, 0 -14" transform="rotate(90,334,390)"/><path d="M 327 453v 14h 7a 7 7, 0, 0, 0, 0 -14" transform="rotate(-90,334,460)"/><path d="M 327 467v 14h 14v -7a 7 7, 0, 0, 0, -7 -7" transform="rotate(180,334,474)"/><rect x="341" y="19" width="14" height="14" transform="rotate(0,348,26)"/><path d="M 341 47v 14h 14v -7a 7 7, 0, 0, 0, -7 -7" transform="rotate(-90,348,54)"/><path d="M 341 61v 14h 14v -7a 7 7, 0, 0, 0, -7 -7" transform="rotate(90,348,68)"/><circle cx="348" cy="138" r="7" transform="rotate(0,348,138)"/><path d="M 341 173v 14h 14v -7a 7 7, 0, 0, 0, -7 -7" transform="rotate(-90,348,180)"/><path d="M 341 187v 14h 7a 7 7, 0, 0, 0, 0 -14" transform="rotate(90,348,194)"/><rect x="341" y="215" width="14" height="14" transform="rotate(0,348,222)"/><rect x="341" y="229" width="14" height="14" transform="rotate(0,348,236)"/><path d="M 341 243v 14h 14v -7a 7 7, 0, 0, 0, -7 -7" transform="rotate(180,348,250)"/><rect x="341" y="369" width="14" height="14" transform="rotate(0,348,376)"/><path d="M 341 411v 14h 7a 7 7, 0, 0, 0, 0 -14" transform="rotate(180,348,418)"/><circle cx="348" cy="446" r="7" transform="rotate(0,348,446)"/><rect x="341" y="467" width="14" height="14" transform="rotate(0,348,474)"/><path d="M 355 19v 14h 14v -7a 7 7, 0, 0, 0, -7 -7" transform="rotate(0,362,26)"/><rect x="355" y="33" width="14" height="14" transform="rotate(0,362,40)"/><path d="M 355 47v 14h 14v -7a 7 7, 0, 0, 0, -7 -7" transform="rotate(90,362,54)"/><path d="M 355 89v 14h 7a 7 7, 0, 0, 0, 0 -14" transform="rotate(-90,362,96)"/><rect x="355" y="103" width="14" height="14" transform="rotate(0,362,110)"/><path d="M 355 117v 14h 7a 7 7, 0, 0, 0, 0 -14" transform="rotate(90,362,124)"/><path d="M 355 145v 14h 7a 7 7, 0, 0, 0, 0 -14" transform="rotate(180,362,152)"/><rect x="355" y="173" width="14" height="14" transform="rotate(0,362,180)"/><rect x="355" y="215" width="14" height="14" transform="rotate(0,362,222)"/><rect x="355" y="243" width="14" height="14" transform="rotate(0,362,250)"/><path d="M 355 257v 14h 14v -7a 7 7, 0, 0, 0, -7 -7" transform="rotate(180,362,264)"/><path d="M 355 285v 14h 7a 7 7, 0, 0, 0, 0 -14" transform="rotate(-90,362,292)"/><path d="M 355 299v 14h 7a 7 7, 0, 0, 0, 0 -14" transform="rotate(90,362,306)"/><path d="M 355 327v 14h 7a 7 7, 0, 0, 0, 0 -14" transform="rotate(-90,362,334)"/><rect x="355" y="341" width="14" height="14" transform="rotate(0,362,348)"/><rect x="355" y="355" width="14" height="14" transform="rotate(0,362,362)"/><rect x="355" y="369" width="14" height="14" transform="rotate(0,362,376)"/><rect x="355" y="383" width="14" height="14" transform="rotate(0,362,390)"/><rect x="355" y="397" width="14" height="14" transform="rotate(0,362,404)"/><rect x="355" y="411" width="14" height="14" transform="rotate(0,362,418)"/><path d="M 355 425v 14h 7a 7 7, 0, 0, 0, 0 -14" transform="rotate(90,362,432)"/><path d="M 355 453v 14h 14v -7a 7 7, 0, 0, 0, -7 -7" transform="rotate(-90,362,460)"/><path d="M 355 467v 14h 14v -7a 7 7, 0, 0, 0, -7 -7" transform="rotate(90,362,474)"/><path d="M 369 131v 14h 7a 7 7, 0, 0, 0, 0 -14" transform="rotate(-90,376,138)"/><rect x="369" y="145" width="14" height="14" transform="rotate(0,376,152)"/><rect x="369" y="159" width="14" height="14" transform="rotate(0,376,166)"/><rect x="369" y="173" width="14" height="14" transform="rotate(0,376,180)"/><path d="M 369 187v 14h 14v -7a 7 7, 0, 0, 0, -7 -7" transform="rotate(180,376,194)"/><path d="M 369 215v 14h 7a 7 7, 0, 0, 0, 0 -14" transform="rotate(0,376,222)"/><rect x="369" y="243" width="14" height="14" transform="rotate(0,376,250)"/><rect x="369" y="257" width="14" height="14" transform="rotate(0,376,264)"/><rect x="369" y="341" width="14" height="14" transform="rotate(0,376,348)"/><rect x="369" y="355" width="14" height="14" transform="rotate(0,376,362)"/><rect x="369" y="411" width="14" height="14" transform="rotate(0,376,418)"/><path d="M 369 439v 14h 14v -7a 7 7, 0, 0, 0, -7 -7" transform="rotate(-90,376,446)"/><path d="M 369 453v 14h 14v -7a 7 7, 0, 0, 0, -7 -7" transform="rotate(90,376,460)"/><rect x="383" y="145" width="14" height="14" transform="rotate(0,390,152)"/><rect x="383" y="159" width="14" height="14" transform="rotate(0,390,166)"/><rect x="383" y="187" width="14" height="14" transform="rotate(0,390,194)"/><path d="M 383 201v 14h 7a 7 7, 0, 0, 0, 0 -14" transform="rotate(90,390,208)"/><rect x="383" y="243" width="14" height="14" transform="rotate(0,390,250)"/><rect x="383" y="257" width="14" height="14" transform="rotate(0,390,264)"/><rect x="383" y="271" width="14" height="14" transform="rotate(0,390,278)"/><rect x="383" y="285" width="14" height="14" transform="rotate(0,390,292)"/><rect x="383" y="299" width="14" height="14" transform="rotate(0,390,306)"/><rect x="383" y="313" width="14" height="14" transform="rotate(0,390,320)"/><rect x="383" y="327" width="14" height="14" transform="rotate(0,390,334)"/><rect x="383" y="341" width="14" height="14" transform="rotate(0,390,348)"/><rect x="383" y="355" width="14" height="14" transform="rotate(0,390,362)"/><circle cx="390" cy="390" r="7" transform="rotate(0,390,390)"/><rect x="383" y="411" width="14" height="14" transform="rotate(0,390,418)"/><rect x="383" y="439" width="14" height="14" transform="rotate(0,390,446)"/><path d="M 397 131v 14h 14v -7a 7 7, 0, 0, 0, -7 -7" transform="rotate(-90,404,138)"/><rect x="397" y="145" width="14" height="14" transform="rotate(0,404,152)"/><rect x="397" y="159" width="14" height="14" transform="rotate(0,404,166)"/><rect x="397" y="173" width="14" height="14" transform="rotate(0,404,180)"/><path d="M 397 187v 14h 14v -7a 7 7, 0, 0, 0, -7 -7" transform="rotate(90,404,194)"/><path d="M 397 215v 14h 7a 7 7, 0, 0, 0, 0 -14" transform="rotate(-90,404,222)"/><rect x="397" y="229" width="14" height="14" transform="rotate(0,404,236)"/><rect x="397" y="243" width="14" height="14" transform="rotate(0,404,250)"/><rect x="397" y="257" width="14" height="14" transform="rotate(0,404,264)"/><path d="M 397 285v 14h 14v -7a 7 7, 0, 0, 0, -7 -7" transform="rotate(0,404,292)"/><rect x="397" y="299" width="14" height="14" transform="rotate(0,404,306)"/><rect x="397" y="341" width="14" height="14" transform="rotate(0,404,348)"/><rect x="397" y="355" width="14" height="14" transform="rotate(0,404,362)"/><rect x="397" y="411" width="14" height="14" transform="rotate(0,404,418)"/><path d="M 397 439v 14h 14v -7a 7 7, 0, 0, 0, -7 -7" transform="rotate(0,404,446)"/><rect x="397" y="453" width="14" height="14" transform="rotate(0,404,460)"/><path d="M 397 467v 14h 14v -7a 7 7, 0, 0, 0, -7 -7" transform="rotate(180,404,474)"/><rect x="411" y="131" width="14" height="14" transform="rotate(0,418,138)"/><path d="M 411 145v 14h 14v -7a 7 7, 0, 0, 0, -7 -7" transform="rotate(90,418,152)"/><rect x="411" y="173" width="14" height="14" transform="rotate(0,418,180)"/><rect x="411" y="257" width="14" height="14" transform="rotate(0,418,264)"/><path d="M 411 271v 14h 14v -7a 7 7, 0, 0, 0, -7 -7" transform="rotate(180,418,278)"/><rect x="411" y="299" width="14" height="14" transform="rotate(0,418,306)"/><path d="M 411 313v 14h 14v -7a 7 7, 0, 0, 0, -7 -7" transform="rotate(180,418,320)"/><path d="M 411 341v 14h 14v -7a 7 7, 0, 0, 0, -7 -7" transform="rotate(0,418,348)"/><rect x="411" y="355" width="14" height="14" transform="rotate(0,418,362)"/><rect x="411" y="369" width="14" height="14" transform="rotate(0,418,376)"/><rect x="411" y="383" width="14" height="14" transform="rotate(0,418,390)"/><rect x="411" y="397" width="14" height="14" transform="rotate(0,418,404)"/><path d="M 411 411v 14h 14v -7a 7 7, 0, 0, 0, -7 -7" transform="rotate(90,418,418)"/><path d="M 411 453v 14h 14v -7a 7 7, 0, 0, 0, -7 -7" transform="rotate(0,418,460)"/><rect x="411" y="467" width="14" height="14" transform="rotate(0,418,474)"/><path d="M 425 131v 14h 7a 7 7, 0, 0, 0, 0 -14" transform="rotate(0,432,138)"/><path d="M 425 159v 14h 14v -7a 7 7, 0, 0, 0, -7 -7" transform="rotate(-90,432,166)"/><rect x="425" y="173" width="14" height="14" transform="rotate(0,432,180)"/><circle cx="432" cy="222" r="7" transform="rotate(0,432,222)"/><path d="M 425 243v 14h 7a 7 7, 0, 0, 0, 0 -14" transform="rotate(-90,432,250)"/><rect x="425" y="257" width="14" height="14" transform="rotate(0,432,264)"/><path d="M 425 271v 14h 14v -7a 7 7, 0, 0, 0, -7 -7" transform="rotate(90,432,278)"/><rect x="425" y="299" width="14" height="14" transform="rotate(0,432,306)"/><path d="M 425 313v 14h 14v -7a 7 7, 0, 0, 0, -7 -7" transform="rotate(90,432,320)"/><rect x="425" y="355" width="14" height="14" transform="rotate(0,432,362)"/><rect x="425" y="369" width="14" height="14" transform="rotate(0,432,376)"/><path d="M 425 425v 14h 7a 7 7, 0, 0, 0, 0 -14" transform="rotate(-90,432,432)"/><path d="M 425 439v 14h 7a 7 7, 0, 0, 0, 0 -14" transform="rotate(90,432,446)"/><rect x="425" y="467" width="14" height="14" transform="rotate(0,432,474)"/><path d="M 439 159v 14h 14v -7a 7 7, 0, 0, 0, -7 -7" transform="rotate(0,446,166)"/><path d="M 439 173v 14h 14v -7a 7 7, 0, 0, 0, -7 -7" transform="rotate(90,446,180)"/><circle cx="446" cy="208" r="7" transform="rotate(0,446,208)"/><path d="M 439 229v 14h 7a 7 7, 0, 0, 0, 0 -14" transform="rotate(180,446,236)"/><path d="M 439 299v 14h 7a 7 7, 0, 0, 0, 0 -14" transform="rotate(0,446,306)"/><path d="M 439 341v 14h 7a 7 7, 0, 0, 0, 0 -14" transform="rotate(-90,446,348)"/><rect x="439" y="355" width="14" height="14" transform="rotate(0,446,362)"/><path d="M 439 369v 14h 14v -7a 7 7, 0, 0, 0, -7 -7" transform="rotate(90,446,376)"/><path d="M 439 397v 14h 7a 7 7, 0, 0, 0, 0 -14" transform="rotate(-90,446,404)"/><path d="M 439 411v 14h 14v -7a 7 7, 0, 0, 0, -7 -7" transform="rotate(180,446,418)"/><path d="M 439 453v 14h 14v -7a 7 7, 0, 0, 0, -7 -7" transform="rotate(-90,446,460)"/><rect x="439" y="467" width="14" height="14" transform="rotate(0,446,474)"/><path d="M 453 131v 14h 7a 7 7, 0, 0, 0, 0 -14" transform="rotate(-90,460,138)"/><path d="M 453 145v 14h 14v -7a 7 7, 0, 0, 0, -7 -7" transform="rotate(180,460,152)"/><path d="M 453 229v 14h 14v -7a 7 7, 0, 0, 0, -7 -7" transform="rotate(0,460,236)"/><rect x="453" y="243" width="14" height="14" transform="rotate(0,460,250)"/><rect x="453" y="257" width="14" height="14" transform="rotate(0,460,264)"/><path d="M 453 271v 14h 7a 7 7, 0, 0, 0, 0 -14" transform="rotate(90,460,278)"/><path d="M 453 411v 14h 14v -7a 7 7, 0, 0, 0, -7 -7" transform="rotate(0,460,418)"/><rect x="453" y="425" width="14" height="14" transform="rotate(0,460,432)"/><rect x="453" y="439" width="14" height="14" transform="rotate(0,460,446)"/><rect x="453" y="453" width="14" height="14" transform="rotate(0,460,460)"/><path d="M 453 467v 14h 14v -7a 7 7, 0, 0, 0, -7 -7" transform="rotate(90,460,474)"/><path d="M 467 145v 14h 7a 7 7, 0, 0, 0, 0 -14" transform="rotate(0,474,152)"/><circle cx="474" cy="194" r="7" transform="rotate(0,474,194)"/><path d="M 467 243v 14h 7a 7 7, 0, 0, 0, 0 -14" transform="rotate(0,474,250)"/><path d="M 467 341v 14h 7a 7 7, 0, 0, 0, 0 -14" transform="rotate(-90,474,348)"/><rect x="467" y="355" width="14" height="14" transform="rotate(0,474,362)"/><rect x="467" y="369" width="14" height="14" transform="rotate(0,474,376)"/><rect x="467" y="383" width="14" height="14" transform="rotate(0,474,390)"/><path d="M 467 397v 14h 7a 7 7, 0, 0, 0, 0 -14" transform="rotate(90,474,404)"/></clipPath><clipPath id="clip-path-corners-square-color-0-0"><path clip-rule="evenodd" d="M 19 54v 28a 35 35, 0, 0, 0, 35 35h 28a 35 35, 0, 0, 0, 35 -35v -28a 35 35, 0, 0, 0, -35 -35h -28a 35 35, 0, 0, 0, -35 35M 54 33h 28a 21 21, 0, 0, 1, 21 21v 28a 21 21, 0, 0, 1, -21 21h -28a 21 21, 0, 0, 1, -21 -21v -28a 21 21, 0, 0, 1, 21 -21" transform="rotate(0,68,68)"/></clipPath><clipPath id="clip-path-corners-dot-color-0-0"><circle cx="68" cy="68" r="21" transform="rotate(0,68,68)"/></clipPath><clipPath id="clip-path-corners-square-color-1-0"><path clip-rule="evenodd" d="M 383 54v 28a 35 35, 0, 0, 0, 35 35h 28a 35 35, 0, 0, 0, 35 -35v -28a 35 35, 0, 0, 0, -35 -35h -28a 35 35, 0, 0, 0, -35 35M 418 33h 28a 21 21, 0, 0, 1, 21 21v 28a 21 21, 0, 0, 1, -21 21h -28a 21 21, 0, 0, 1, -21 -21v -28a 21 21, 0, 0, 1, 21 -21" transform="rotate(90,432,68)"/></clipPath><clipPath id="clip-path-corners-dot-color-1-0"><circle cx="432" cy="68" r="21" transform="rotate(90,432,68)"/></clipPath><clipPath id="clip-path-corners-square-color-0-1"><path clip-rule="evenodd" d="M 19 418v 28a 35 35, 0, 0, 0, 35 35h 28a 35 35, 0, 0, 0, 35 -35v -28a 35 35, 0, 0, 0, -35 -35h -28a 35 35, 0, 0, 0, -35 35M 54 397h 28a 21 21, 0, 0, 1, 21 21v 28a 21 21, 0, 0, 1, -21 21h -28a 21 21, 0, 0, 1, -21 -21v -28a 21 21, 0, 0, 1, 21 -21" transform="rotate(-90,68,432)"/></clipPath><clipPath id="clip-path-corners-dot-color-0-1"><circle cx="68" cy="432" r="21" transform="rotate(-90,68,432)"/></clipPath></defs><rect x="0" y="0" height="500" width="500" clip-path="url('#clip-path-background-color')" fill="#fff"/><rect x="0" y="0" height="500" width="500" clip-path="url('#clip-path-dot-color')" fill="#000000"/><rect x="19" y="19" height="98" width="98" clip-path="url('#clip-path-corners-square-color-0-0')" fill="#000000"/><rect x="47" y="47" height="42" width="42" clip-path="url('#clip-path-corners-dot-color-0-0')" fill="#000000"/><rect x="383" y="19" height="98" width="98" clip-path="url('#clip-path-corners-square-color-1-0')" fill="#000000"/><rect x="411" y="47" height="42" width="42" clip-path="url('#clip-path-corners-dot-color-1-0')" fill="#000000"/><rect x="19" y="383" height="98" width="98" clip-path="url('#clip-path-corners-square-color-0-1')" fill="#000000"/><rect x="47" y="411" height="42" width="42" clip-path="url('#clip-path-corners-dot-color-0-1')" fill="#000000"/></svg>